<svg width="151" height="49" viewBox="0 0 151 49" fill="none" xmlns="http://www.w3.org/2000/svg">
<g clip-path="url(#clip0_789_7716)">
<g clip-path="url(#clip1_789_7716)">
<path d="M23.5274 39.2552C18.4422 38.9443 13.5726 35.8339 11.2052 31.2883C9.00828 27.07 9.04284 21.7708 11.2883 17.5847C13.802 12.8989 18.7882 10.0415 24.3073 9.79571C24.3073 9.79571 25.6787 9.70787 26.5941 9.18803C29.3099 7.64483 29.7154 3.08963 26.7966 1.22963C26.0109 0.728987 25.073 0.497146 24.1379 0.500026C14.9176 0.588347 6.00156 6.35027 2.25372 14.8986C-0.896044 22.0838 -0.240844 30.7972 4.03836 37.46C7.44396 42.7622 12.998 46.6396 19.1594 47.9803C27.591 49.8152 36.9304 46.6967 42.5665 40.1212C48.1546 33.6008 49.8621 23.9624 46.7325 15.8711C44.9382 11.2324 41.7592 7.00211 37.5054 4.45715C37.2832 4.32419 37.0504 4.21475 36.8104 4.12739C41.0896 7.79219 43.8025 13.2301 43.8025 19.2955C43.8025 30.32 34.8405 39.2702 23.801 39.2702C23.7107 39.2702 23.7015 39.2659 23.5274 39.2552Z" fill="#1292EE"/>
<path d="M54.8423 33.5V15.68H66.8766V19.0486H58.8537V22.5457H65.9766V25.8371H58.8537V30.1315H67.4681V33.5H54.8423ZM74.448 30.2344C74.6366 30.2515 74.8509 30.2686 75.0909 30.2857C75.348 30.2857 75.648 30.2857 75.9909 30.2857C77.9966 30.2857 79.4795 29.78 80.4395 28.7686C81.4166 27.7571 81.9051 26.36 81.9051 24.5771C81.9051 22.7086 81.4424 21.2944 80.5166 20.3344C79.5909 19.3744 78.1251 18.8944 76.1195 18.8944C75.8451 18.8944 75.5624 18.9029 75.2709 18.92C74.9795 18.92 74.7051 18.9371 74.448 18.9715V30.2344ZM86.0452 24.5771C86.0452 26.12 85.8051 27.4657 85.3251 28.6144C84.8451 29.7629 84.1595 30.7144 83.268 31.4686C82.3938 32.2229 81.3224 32.7886 80.0538 33.1657C78.7851 33.5429 77.3624 33.7315 75.7851 33.7315C75.0651 33.7315 74.2251 33.6971 73.2651 33.6286C72.3051 33.5771 71.3624 33.4571 70.4366 33.2686V15.9115C71.3624 15.74 72.3224 15.6286 73.3166 15.5771C74.328 15.5086 75.1938 15.4743 75.9138 15.4743C77.4395 15.4743 78.8195 15.6457 80.0538 15.9886C81.3051 16.3315 82.3766 16.8715 83.268 17.6086C84.1595 18.3457 84.8451 19.2886 85.3251 20.4371C85.8051 21.5857 86.0452 22.9657 86.0452 24.5771ZM89.0102 16.6057L92.8417 15.9886V19.9744H97.4446V23.1629H92.8417V27.92C92.8417 28.7257 92.9788 29.3686 93.2531 29.8486C93.5446 30.3286 94.1188 30.5686 94.9759 30.5686C95.3873 30.5686 95.8073 30.5344 96.2359 30.4657C96.6817 30.38 97.0846 30.2686 97.4446 30.1315L97.9845 33.1144C97.5216 33.3029 97.0073 33.4657 96.4417 33.6029C95.8759 33.74 95.1817 33.8086 94.3587 33.8086C93.3131 33.8086 92.4473 33.6715 91.7616 33.3971C91.0758 33.1057 90.5273 32.7115 90.1159 32.2144C89.7046 31.7 89.4131 31.0829 89.2416 30.3629C89.0873 29.6429 89.0102 28.8457 89.0102 27.9715V16.6057ZM99.4195 26.84C99.4195 25.64 99.5995 24.5944 99.9595 23.7029C100.337 22.7944 100.825 22.04 101.425 21.44C102.025 20.84 102.711 20.3857 103.482 20.0771C104.271 19.7686 105.077 19.6144 105.899 19.6144C107.819 19.6144 109.337 20.2057 110.451 21.3886C111.565 22.5544 112.122 24.2771 112.122 26.5571C112.122 26.78 112.114 27.0286 112.097 27.3029C112.079 27.56 112.062 27.7915 112.045 27.9971H103.354C103.439 28.7857 103.808 29.4115 104.459 29.8744C105.111 30.3371 105.985 30.5686 107.082 30.5686C107.785 30.5686 108.471 30.5086 109.139 30.3886C109.825 30.2515 110.382 30.0886 110.811 29.9L111.325 33.0115C111.119 33.1144 110.845 33.2171 110.502 33.32C110.159 33.4229 109.774 33.5086 109.345 33.5771C108.934 33.6629 108.488 33.7315 108.008 33.7829C107.528 33.8344 107.048 33.86 106.568 33.86C105.351 33.86 104.288 33.68 103.379 33.32C102.488 32.96 101.742 32.4715 101.142 31.8544C100.559 31.22 100.122 30.4744 99.8309 29.6171C99.5566 28.76 99.4195 27.8344 99.4195 26.84ZM108.419 25.3744C108.402 25.0486 108.342 24.7315 108.239 24.4229C108.154 24.1144 108.008 23.84 107.802 23.6C107.614 23.36 107.365 23.1629 107.057 23.0086C106.765 22.8544 106.397 22.7771 105.951 22.7771C105.522 22.7771 105.154 22.8544 104.845 23.0086C104.537 23.1457 104.279 23.3344 104.074 23.5744C103.868 23.8144 103.705 24.0971 103.585 24.4229C103.482 24.7315 103.405 25.0486 103.354 25.3744H108.419ZM120.248 30.8257C120.625 30.8257 120.985 30.8171 121.328 30.8C121.67 30.7829 121.945 30.7571 122.15 30.7229V27.8171C121.996 27.7829 121.765 27.7486 121.456 27.7144C121.148 27.68 120.865 27.6629 120.608 27.6629C120.248 27.6629 119.905 27.6886 119.579 27.74C119.27 27.7744 118.996 27.8515 118.756 27.9715C118.516 28.0915 118.328 28.2544 118.19 28.46C118.053 28.6657 117.985 28.9229 117.985 29.2315C117.985 29.8315 118.182 30.2515 118.576 30.4915C118.988 30.7144 119.545 30.8257 120.248 30.8257ZM119.939 19.6144C121.07 19.6144 122.013 19.7429 122.768 20C123.522 20.2571 124.122 20.6257 124.568 21.1057C125.03 21.5857 125.356 22.1686 125.545 22.8544C125.733 23.54 125.828 24.3029 125.828 25.1429V33.1144C125.279 33.2344 124.516 33.3715 123.539 33.5257C122.562 33.6971 121.379 33.7829 119.99 33.7829C119.116 33.7829 118.319 33.7057 117.599 33.5515C116.896 33.3971 116.288 33.1486 115.773 32.8057C115.259 32.4457 114.865 31.9829 114.59 31.4171C114.316 30.8515 114.179 30.1571 114.179 29.3344C114.179 28.5457 114.333 27.8771 114.642 27.3286C114.968 26.78 115.396 26.3429 115.928 26.0171C116.459 25.6915 117.068 25.46 117.753 25.3229C118.439 25.1686 119.15 25.0915 119.888 25.0915C120.385 25.0915 120.822 25.1171 121.199 25.1686C121.593 25.2029 121.91 25.2544 122.15 25.3229V24.9629C122.15 24.3115 121.953 23.7886 121.559 23.3944C121.165 23 120.479 22.8029 119.502 22.8029C118.85 22.8029 118.208 22.8544 117.573 22.9571C116.939 23.0429 116.39 23.1715 115.928 23.3429L115.439 20.2571C115.662 20.1886 115.936 20.12 116.262 20.0515C116.605 19.9657 116.973 19.8971 117.368 19.8457C117.762 19.7771 118.173 19.7257 118.602 19.6915C119.048 19.64 119.493 19.6144 119.939 19.6144ZM136.724 26.3257C136.724 25.0915 136.561 24.2171 136.235 23.7029C135.926 23.1886 135.386 22.9315 134.615 22.9315C134.375 22.9315 134.126 22.9486 133.869 22.9829C133.612 23 133.364 23.0257 133.124 23.06V33.5H129.292V20.4371C129.618 20.3515 129.995 20.2657 130.424 20.18C130.869 20.0771 131.332 19.9915 131.812 19.9229C132.309 19.8371 132.815 19.7771 133.329 19.7429C133.844 19.6915 134.349 19.6657 134.846 19.6657C135.824 19.6657 136.612 19.7944 137.212 20.0515C137.829 20.2915 138.335 20.5829 138.729 20.9257C139.278 20.5315 139.904 20.2229 140.606 20C141.326 19.7771 141.986 19.6657 142.586 19.6657C143.666 19.6657 144.549 19.82 145.235 20.1286C145.938 20.42 146.495 20.84 146.906 21.3886C147.318 21.9371 147.601 22.5886 147.755 23.3429C147.909 24.0971 147.986 24.9371 147.986 25.8629V33.5H144.155V26.3257C144.155 25.0915 143.992 24.2171 143.666 23.7029C143.358 23.1886 142.818 22.9315 142.046 22.9315C141.841 22.9315 141.549 22.9829 141.172 23.0857C140.812 23.1886 140.512 23.3171 140.272 23.4715C140.392 23.8657 140.469 24.2857 140.504 24.7315C140.538 25.16 140.555 25.6229 140.555 26.12V33.5H136.724V26.3257Z" fill="#222222"/>
</g>
</g>
<defs>
<clipPath id="clip0_789_7716">
<rect width="150" height="48" fill="white" transform="translate(0.285156 0.5)"/>
</clipPath>
<clipPath id="clip1_789_7716">
<rect width="150" height="48" fill="white" transform="translate(0.285156 0.5)"/>
</clipPath>
</defs>
</svg>
