<svg width="176" height="37" viewBox="0 0 176 37" fill="none" xmlns="http://www.w3.org/2000/svg">
<g clip-path="url(#clip0_789_7708)">
<path d="M2.64412 24.661C2.41102 24.4919 2.30749 24.1473 2.19173 23.8701C1.36196 21.8825 1.05008 19.8772 1.06288 18.1193C1.07731 16.0871 1.4441 14.1295 2.1262 12.3108C3.49046 8.67224 5.87199 5.11845 10.5613 2.6405C11.8347 1.96725 13.0945 1.52164 14.2678 1.20087C17.7147 0.259237 20.8898 0.311465 23.6726 1.0886C25.4356 1.5804 27.2829 2.44576 28.7586 3.91683C29.5208 4.6767 30.2702 5.72718 30.5718 6.86355C31.1158 8.91071 30.444 10.9178 28.841 12.3221C28.0005 13.0585 26.8187 13.595 25.5227 14.1921C17.9543 17.6809 10.2688 21.211 2.64412 24.661ZM35.4239 12.3832C36.1572 13.6123 36.4618 14.8911 36.6885 16.0709C37.3569 19.5488 36.8311 22.841 35.5073 25.7172C35.0557 26.6988 34.6024 27.645 33.974 28.5711C32.1803 31.2179 29.3103 33.9446 24.8686 35.4763C22.2993 36.3616 19.8335 36.5884 17.5177 36.4716C15.2525 36.3578 13.1329 35.7093 11.3154 34.6931C10.3923 34.1771 9.50097 33.4271 8.72985 32.5173C7.89407 31.5306 7.37897 30.2772 7.28312 29.0592C7.15085 27.3884 7.9038 25.8628 9.22885 24.6729C9.71204 24.2402 10.2925 23.8506 11.0059 23.5122C13.0372 22.5478 15.1322 21.6108 17.1905 20.6624C23.2547 17.8702 29.1877 15.1723 35.4239 12.3832Z" fill="#423DCE"/>
<path d="M55.0285 29.7498C59.8963 29.7498 62.944 26.8106 63.6213 23.5731H59.8963C59.2614 25.2344 57.9069 26.6402 55.0285 26.6402C50.838 26.6402 49.1872 23.8287 49.0602 20.5912H63.6213C63.7906 19.5263 63.7906 18.7169 63.7906 18.1631C63.7906 13.2218 59.8963 9.43053 54.9016 9.43053C48.8485 9.43053 45.4199 13.7755 45.4199 19.6115C45.4199 25.1918 48.5522 29.7498 55.0285 29.7498ZM60.235 17.7798H49.1025C49.2295 14.2441 51.4729 12.2846 54.8169 12.2846C57.9069 12.2846 60.235 14.3719 60.235 17.7798ZM69.6319 29.2812V19.4411C69.6319 14.8831 71.5367 12.7106 74.3728 12.7106C76.9548 12.7106 78.394 14.4571 78.394 18.3761V29.2812H82.0766V19.4411C82.0766 14.8831 83.8967 12.7106 86.7751 12.7106C89.4418 12.7106 90.8386 14.5849 90.8386 18.1631V29.2812H94.5212V17.0556C94.5212 12.7958 92.7434 9.43053 87.664 9.43053C84.6163 9.43053 82.2882 11.3474 81.484 13.5625C80.7644 11.0493 78.8596 9.43053 75.304 9.43053C72.4256 9.43053 70.3515 11.2196 69.6319 13.3921V9.9417H65.9493V29.2812H69.6319ZM107.22 29.7498C113.4 29.7498 117.379 25.064 117.379 19.6115C117.379 14.1163 113.4 9.43053 107.22 9.43053C101.125 9.43053 97.1456 14.1163 97.1456 19.6115C97.1456 25.064 101.125 29.7498 107.22 29.7498ZM107.22 26.4272C103.326 26.4272 100.786 23.3175 100.786 19.6115C100.786 15.9054 103.326 12.7532 107.22 12.7532C111.156 12.7532 113.738 15.9054 113.738 19.6115C113.738 23.3175 111.156 26.4272 107.22 26.4272ZM127.051 29.5368C128.278 29.5368 129.633 29.409 130.352 29.2812V26.0012C129.802 26.129 128.659 26.1716 127.855 26.1716C125.993 26.1716 124.68 25.703 124.68 21.9544V13.0514H129.675V9.9417H124.68V3.42419H120.998V9.9417H117.442V13.0514H120.998V22.7637C120.998 29.1109 124.68 29.5368 127.051 29.5368ZM134.407 7.6627C135.586 7.6627 136.554 6.74989 136.554 5.56323C136.554 4.37656 135.586 3.40289 134.407 3.40289C133.228 3.40289 132.321 4.37656 132.321 5.56323C132.321 6.74989 133.228 7.6627 134.407 7.6627ZM136.257 29.2812V9.9417H132.575V29.2812H136.257ZM148.871 29.2812L157.676 9.9417H153.697L147.601 23.9991L141.591 9.9417H137.612L146.332 29.2812H148.871ZM166.099 29.7498C170.967 29.7498 174.015 26.8106 174.692 23.5731H170.967C170.332 25.2344 168.977 26.6402 166.099 26.6402C161.909 26.6402 160.258 23.8287 160.131 20.5912H174.692C174.861 19.5263 174.861 18.7169 174.861 18.1631C174.861 13.2218 170.967 9.43053 165.972 9.43053C159.919 9.43053 156.49 13.7755 156.49 19.6115C156.49 25.1918 159.623 29.7498 166.099 29.7498ZM171.306 17.7798H160.173C160.3 14.2441 162.543 12.2846 165.887 12.2846C168.977 12.2846 171.306 14.3719 171.306 17.7798Z" fill="#423DCE"/>
</g>
<defs>
<clipPath id="clip0_789_7708">
<rect width="175.799" height="36" fill="white" transform="translate(0.0625 0.5)"/>
</clipPath>
</defs>
</svg>
