<svg width="168" height="33" viewBox="0 0 168 33" fill="none" xmlns="http://www.w3.org/2000/svg">
<g clip-path="url(#clip0_789_7761)">
<path d="M46.6335 10.0366V15.1908H53.5517V18.4615H46.6335V23.9097H54.4337V27.2631H42.5083V6.68317H54.4337V10.0366H46.6335Z" fill="#000019"/>
<path d="M62.1143 26.8037C61.0578 26.326 60.2125 25.6737 59.597 24.8468C58.9814 24.0199 58.6415 23.1104 58.5771 22.1089H62.7299C62.8126 22.7337 63.1158 23.2574 63.6578 23.6708C64.1999 24.0843 64.8706 24.2864 65.6699 24.2864C66.4692 24.2864 67.0664 24.1302 67.5074 23.8178C67.9484 23.5054 68.1689 23.1012 68.1689 22.6143C68.1689 22.0814 67.9024 21.6863 67.3604 21.4199C66.8183 21.1534 65.9639 20.8686 64.7879 20.5471C63.5751 20.2531 62.5737 19.9499 61.802 19.6375C61.0302 19.3251 60.3595 18.8382 59.7991 18.1951C59.2386 17.552 58.963 16.67 58.963 15.5766C58.963 14.6763 59.2203 13.8494 59.744 13.1052C60.2676 12.361 61.0118 11.773 61.9857 11.3412C62.9596 10.9094 64.0988 10.6889 65.4126 10.6889C67.3512 10.6889 68.9039 11.1758 70.0615 12.1497C71.2191 13.1236 71.8531 14.4282 71.9725 16.082H68.0311C67.9759 15.4388 67.7003 14.9151 67.2226 14.5385C66.7448 14.1526 66.1017 13.9688 65.2932 13.9688C64.549 13.9688 63.9702 14.1066 63.5751 14.3823C63.1709 14.6579 62.9688 15.0438 62.9688 15.5307C62.9688 16.082 63.2444 16.4954 63.7956 16.7802C64.3469 17.065 65.2013 17.3498 66.3589 17.653C67.5349 17.947 68.5088 18.2502 69.2714 18.5626C70.0339 18.8749 70.6954 19.3619 71.2559 20.0234C71.8163 20.6849 72.1011 21.5485 72.1287 22.6326C72.1287 23.5789 71.8714 24.415 71.3477 25.1684C70.8241 25.9126 70.0799 26.5006 69.106 26.9232C68.1321 27.3458 67.0021 27.5571 65.7066 27.5571C64.4112 27.5571 63.1709 27.3182 62.1143 26.8313V26.8037Z" fill="#000019"/>
<path d="M81.6103 14.3363V22.2284C81.6103 22.7796 81.739 23.1747 82.0054 23.4227C82.2718 23.6708 82.7128 23.7902 83.3468 23.7902H85.2578V27.2631H82.6669C79.194 27.2631 77.4576 25.5726 77.4576 22.2008V14.3363H75.519V10.9553H77.4576V6.91284H81.6103V10.9461H85.2578V14.3271H81.6103V14.3363Z" fill="#000019"/>
<path d="M104.57 20.345H92.6443C92.7453 21.521 93.1588 22.4489 93.8846 23.1104C94.6104 23.7811 95.5016 24.1118 96.5673 24.1118C98.1016 24.1118 99.1858 23.4503 99.8381 22.1365H104.285C103.816 23.7076 102.907 24.9938 101.574 26.0045C100.242 27.0151 98.5978 27.5204 96.6592 27.5204C95.0881 27.5204 93.6825 27.1713 92.433 26.473C91.1835 25.7748 90.2188 24.7917 89.5205 23.5147C88.8223 22.2376 88.4731 20.7676 88.4731 19.0955C88.4731 17.4234 88.8131 15.9258 89.5021 14.6487C90.1912 13.3717 91.1467 12.3886 92.387 11.7087C93.6273 11.0197 95.0422 10.6797 96.6592 10.6797C98.2762 10.6797 99.5992 11.0105 100.821 11.6812C102.043 12.3519 102.999 13.2982 103.678 14.5201C104.358 15.7512 104.698 17.1569 104.698 18.7464C104.698 19.3344 104.661 19.8672 104.579 20.3358H104.57V20.345ZM100.417 17.5887C100.398 16.5322 100.013 15.6777 99.2684 15.0438C98.5242 14.4099 97.6055 14.0883 96.5306 14.0883C95.4556 14.0883 94.6471 14.4007 93.9581 15.0162C93.2598 15.6318 92.8372 16.4954 92.681 17.5887H100.417Z" fill="#000019"/>
<path d="M113.105 5.4704V27.2631H108.979V5.4704H113.105Z" fill="#000019"/>
<path d="M122.586 5.4704V27.2631H118.461V5.4704H122.586Z" fill="#000019"/>
<path d="M132.068 5.4704V27.2631H127.942V5.4704H132.068Z" fill="#000019"/>
<path d="M137.351 14.6579C138.012 13.3808 138.903 12.3978 140.033 11.7179C141.164 11.0288 142.422 10.6889 143.819 10.6889C145.031 10.6889 146.097 10.937 147.016 11.4239C147.926 11.9108 148.661 12.5356 149.212 13.2798V10.9553H153.365V27.2631H149.212V24.8744C148.679 25.6369 147.953 26.2709 147.016 26.7762C146.079 27.2815 145.013 27.5296 143.791 27.5296C142.413 27.5296 141.164 27.1804 140.033 26.473C138.903 25.7656 138.012 24.7733 137.351 23.4871C136.689 22.2008 136.368 20.7216 136.368 19.0587C136.368 17.3958 136.698 15.9441 137.351 14.6763V14.6579ZM148.615 16.523C148.22 15.8063 147.696 15.2551 147.025 14.8784C146.354 14.5017 145.638 14.3088 144.875 14.3088C144.113 14.3088 143.405 14.4925 142.753 14.8692C142.11 15.2459 141.577 15.788 141.182 16.5046C140.778 17.2212 140.576 18.0665 140.576 19.0495C140.576 20.0326 140.778 20.887 141.182 21.622C141.586 22.357 142.11 22.9266 142.771 23.3125C143.433 23.7076 144.131 23.9005 144.875 23.9005C145.619 23.9005 146.354 23.7076 147.025 23.3309C147.696 22.9542 148.22 22.4029 148.615 21.6863C149.01 20.9697 149.203 20.1153 149.203 19.1138C149.203 18.1124 149.01 17.258 148.615 16.5413V16.523Z" fill="#000019"/>
<path d="M164.876 11.4515C165.731 10.9646 166.705 10.7165 167.807 10.7165V15.0438H166.714C165.418 15.0438 164.445 15.347 163.783 15.9534C163.122 16.5597 162.8 17.6255 162.8 19.1322V27.254H158.675V10.9462H162.8V13.4819C163.333 12.6183 164.022 11.9384 164.876 11.4515Z" fill="#000019"/>
<path d="M16.7098 32.1325C8.09199 32.1325 1.07275 25.1224 1.07275 16.4954C1.07275 7.86835 8.09199 0.867493 16.7098 0.867493C20.7799 0.867493 24.6295 2.42018 27.5603 5.24073L25.0153 7.88673C22.7736 5.72767 19.8244 4.54249 16.719 4.54249C10.1224 4.54249 4.75693 9.90798 4.75693 16.4954C4.75693 23.0828 10.1224 28.4575 16.719 28.4575C19.999 28.4575 23.0584 27.1621 25.3277 24.8009L27.9737 27.355C24.997 30.4328 21.0004 32.1325 16.719 32.1325H16.7098Z" fill="#E5204F"/>
<path d="M30.1136 0.494436L0.716797 29.8912L3.31541 32.4898L32.7122 3.09305L30.1136 0.494436Z" fill="#E5204F"/>
</g>
<defs>
<clipPath id="clip0_789_7761">
<rect width="167.093" height="32" fill="white" transform="translate(0.714355 0.5)"/>
</clipPath>
</defs>
</svg>
