<svg width="130" height="32" viewBox="0 0 130 32" fill="none" xmlns="http://www.w3.org/2000/svg">
<path d="M14.8327 31.9819C13.4491 31.9819 12.1402 31.1564 11.5906 29.7977C10.8675 28.0107 11.7328 25.9769 13.5226 25.2548L23.1125 21.3883L13.5226 17.5217C11.7328 16.7997 10.8675 14.7659 11.5906 12.9788C12.3137 11.1917 14.3506 10.3277 16.1403 11.0497L29.0687 16.2617C29.2194 16.3231 29.3664 16.3941 29.5074 16.4759C31.2598 17.4856 32.3482 19.3677 32.3482 21.3883C32.3482 23.4088 31.2598 25.2909 29.5074 26.3006C29.3664 26.3824 29.2194 26.4534 29.0687 26.5148L16.1403 31.7268C15.7113 31.9001 15.2677 31.9819 14.8327 31.9819Z" fill="url(#paint0_linear_790_7689)"/>
<path d="M28.8545 6.9798H14.8329C12.9021 6.9798 11.3378 5.41777 11.3378 3.4899C11.3378 1.56203 12.9021 0 14.8329 0H28.8545C30.7852 0 32.3496 1.56203 32.3496 3.4899C32.3496 5.41777 30.784 6.9798 28.8545 6.9798Z" fill="url(#paint1_linear_790_7689)"/>
<path d="M4.02542 32C2.09465 32 0.530273 30.438 0.530273 28.5101V3.4899C0.530273 1.56203 2.09465 0 4.02542 0C5.95618 0 7.52056 1.56203 7.52056 3.4899V28.5101C7.52056 30.438 5.95618 32 4.02542 32Z" fill="url(#paint2_linear_790_7689)"/>
<path d="M41.0898 16.3328V16.2727C41.0898 10.2616 45.7794 5.33844 52.1924 5.33844C55.9743 5.33844 58.333 6.36495 60.512 8.23867L57.5773 11.7731C55.9743 10.4144 54.4618 9.62861 52.0417 9.62861C48.6538 9.62861 45.9614 12.6191 45.9614 16.2137V16.2739C45.9614 20.1404 48.6237 22.9793 52.3743 22.9793C54.099 22.9793 55.5814 22.5569 56.7614 21.7109V18.6903H52.0718V14.6733H61.2689V23.8566C59.0911 25.699 56.0961 27.2093 52.2237 27.2093C45.6275 27.2069 41.0898 22.6159 41.0898 16.3328Z" fill="#1E2025"/>
<path d="M64.4736 18.8396V18.7794C64.4736 14.127 68.2254 10.3519 73.2765 10.3519C78.2686 10.3519 82.0192 14.0367 82.0192 18.7192V18.7794C82.0192 23.4306 78.2686 27.2069 73.2163 27.2069C68.2254 27.2069 64.4736 23.522 64.4736 18.8396ZM77.4828 18.8396V18.7794C77.4828 16.393 75.7581 14.3087 73.2175 14.3087C70.5853 14.3087 69.0125 16.3028 69.0125 18.7192V18.7794C69.0125 21.1658 70.7371 23.2501 73.2777 23.2501C75.9087 23.2501 77.4828 21.256 77.4828 18.8396Z" fill="#1E2025"/>
<path d="M85.5589 4.79327H90.1569V26.8446H85.5589V4.79327Z" fill="#1E2025"/>
<path d="M94.3607 21.1357V10.6539H98.9586V19.6855C98.9586 21.8601 99.9565 22.9781 101.741 22.9781C103.526 22.9781 104.616 21.8601 104.616 19.6855V10.6539H109.214V26.8447H104.616V24.5485C103.557 25.9072 102.166 27.1467 99.8661 27.1467C96.3577 27.1467 94.3607 24.8807 94.3607 21.1357Z" fill="#1E2025"/>
<path d="M112.602 18.7794V18.7192C112.602 13.3122 116.141 10.3518 119.984 10.3518C122.434 10.3518 123.946 11.4698 125.036 12.7683V4.79327H129.634V26.8446H125.036V24.5184C123.916 26.0588 122.404 27.1467 119.984 27.1467C116.202 27.1467 112.602 24.1863 112.602 18.7794ZM125.096 18.7794V18.7192C125.096 16.0308 123.311 14.2485 121.164 14.2485C119.016 14.2485 117.201 16.0007 117.201 18.7192V18.7794C117.201 21.4678 119.016 23.25 121.164 23.25C123.311 23.25 125.096 21.4678 125.096 18.7794Z" fill="#1E2025"/>
<defs>
<linearGradient id="paint0_linear_790_7689" x1="16.4399" y1="0" x2="16.4399" y2="32" gradientUnits="userSpaceOnUse">
<stop stop-color="#33DAFF"/>
<stop offset="1" stop-color="#0AFFD5"/>
</linearGradient>
<linearGradient id="paint1_linear_790_7689" x1="16.4399" y1="0" x2="16.4399" y2="32" gradientUnits="userSpaceOnUse">
<stop stop-color="#33DAFF"/>
<stop offset="1" stop-color="#0AFFD5"/>
</linearGradient>
<linearGradient id="paint2_linear_790_7689" x1="16.4399" y1="0" x2="16.4399" y2="32" gradientUnits="userSpaceOnUse">
<stop stop-color="#33DAFF"/>
<stop offset="1" stop-color="#0AFFD5"/>
</linearGradient>
</defs>
</svg>
