<svg width="92" height="38" viewBox="0 0 92 38" fill="none" xmlns="http://www.w3.org/2000/svg">
<g clip-path="url(#clip0_789_7726)">
<path fill-rule="evenodd" clip-rule="evenodd" d="M91.2288 5.09392C91.2288 9.07172 85.3367 9.07172 85.3367 5.09392C85.3367 1.11612 91.2288 1.11612 91.2288 5.09392ZM74.391 12.6667C77.7004 12.6667 80.3557 14.9807 80.3557 18.9364C80.3557 22.8921 77.6991 25.249 74.391 25.249C66.5444 25.249 66.5444 12.6654 74.391 12.6654V12.6667ZM74.962 29.9626C80.9268 30.0042 85.3419 26.2184 85.3419 18.9364C85.3419 11.7816 80.7243 8.03607 74.8387 8.0776C72.1432 8.0776 69.5696 9.3832 68.4236 11.4454L68.2601 8.58374H63.4777V38H68.4236V26.3002C69.5683 28.7401 72.7155 29.9211 74.9607 29.9613L74.962 29.9626ZM53.1224 29.3734V18.5016C53.1224 15.3415 51.443 12.9405 48.2478 12.9405C45.1759 12.9405 43.0877 15.5945 43.0877 18.7547V29.3734H38.1301V8.55649H42.5945L42.9229 11.3805C44.9734 9.31571 47.0201 8.26188 49.5599 8.26188C54.3099 8.26188 58.1203 11.9282 58.1203 18.4588V29.3734H53.1224ZM15.3677 18.9169C15.3677 22.8662 18.0243 25.2178 21.3337 25.2178C29.1803 25.2178 29.1803 12.6576 21.3337 12.6576C18.0243 12.6576 15.3677 14.9677 15.3677 18.9169ZM27.462 8.58244H32.2432V29.293H27.5451L27.2985 26.2691C26.1538 28.7051 23.0066 29.8822 20.7601 29.9237C14.7928 29.9652 10.3789 26.186 10.3789 18.9169C10.3789 11.7751 14.9978 8.03607 20.8834 8.0776C23.5803 8.0776 26.1525 9.3806 27.2985 11.4389L27.462 8.58244ZM0.381836 29.3734H5.29017V0H0.381836V29.3734Z" fill="#222222"/>
</g>
<defs>
<clipPath id="clip0_789_7726">
<rect width="90.847" height="38" fill="white" transform="translate(0.381836)"/>
</clipPath>
</defs>
</svg>
