<svg width="181" height="37" viewBox="0 0 181 37" fill="none" xmlns="http://www.w3.org/2000/svg">
<g clip-path="url(#clip0_789_7728)">
<path d="M48.8081 9.18442H58.4888V4.60986H53.2167L48.8081 9.18442Z" fill="#00043E"/>
<path d="M60.4343 4.60986L60.3936 9.20926V28.1026L65.1996 28.0907V9.21025H72.3585V4.60986H60.4353H60.4343Z" fill="#00043E"/>
<path d="M89.6977 28.5704C88.3166 28.5704 87.0845 28.3419 86.0035 27.8858C84.9214 27.4298 84.0063 26.7929 83.2581 25.9761C82.5099 25.1594 81.9396 24.1747 81.5491 23.0212C81.1577 21.8676 80.9619 20.6067 80.9619 19.2375C80.9619 17.8683 81.1636 16.5707 81.566 15.4181C81.9684 14.2655 82.5497 13.2809 83.3098 12.4631C84.0699 11.6464 84.984 11.0164 86.0551 10.5713C87.1252 10.1272 88.3394 9.9046 89.6977 9.9046C91.0559 9.9046 92.2294 10.1272 93.2886 10.5713C94.3468 11.0164 95.2509 11.6404 95.9991 12.4452C96.7473 13.2501 97.3226 14.2288 97.726 15.3823C98.1284 16.5349 98.3301 17.8206 98.3301 19.2375C98.3301 20.6544 98.1284 21.9342 97.726 23.0748C97.3226 24.2165 96.7473 25.1952 95.9991 26.0119C95.2509 26.8286 94.3418 27.4596 93.2717 27.9037C92.2016 28.3479 91.0102 28.5704 89.6977 28.5704ZM89.6977 24.6427C92.437 24.6427 93.8072 22.8413 93.8072 19.2375C93.8072 15.6337 92.437 13.8691 89.6977 13.8691C86.9583 13.8691 85.5881 15.6586 85.5881 19.2375C85.5881 22.8165 86.9573 24.6427 89.6977 24.6427Z" fill="#00043E"/>
<path d="M111.006 28.102V25.616C109.855 27.5863 108.094 28.571 105.723 28.571C104.872 28.571 104.095 28.415 103.392 28.103C102.69 27.791 102.086 27.3458 101.579 26.7696C101.072 26.1933 100.675 25.5087 100.388 24.7158C100.1 23.9229 99.9565 23.0346 99.9565 22.0489V10.3741H104.446V21.3276C104.446 23.5384 105.401 24.6422 107.311 24.6422C108.462 24.6422 109.331 24.2637 109.918 23.5076C110.506 22.7514 110.799 21.7846 110.799 20.6072V10.3741H115.253V28.102H111.006Z" fill="#00043E"/>
<path d="M117.221 36.498V10.3742H121.537L121.572 12.5363C122.608 10.7835 124.184 9.90619 126.302 9.90619C127.36 9.90619 128.345 10.1218 129.254 10.555C130.163 10.9872 130.94 11.6122 131.585 12.4289C132.229 13.2457 132.736 14.2433 133.104 15.4197C133.472 16.5971 133.657 17.9305 133.657 19.4199C133.657 20.7653 133.502 21.9964 133.191 23.1132C132.88 24.23 132.425 25.1978 131.827 26.0135C131.228 26.8302 130.497 27.4612 129.634 27.9053C128.77 28.3495 127.787 28.572 126.682 28.572C124.587 28.572 122.906 27.648 121.64 25.7979V36.5H117.221V36.498ZM125.231 24.5708C127.81 24.5708 129.098 22.7455 129.098 19.094C129.098 17.5083 128.742 16.2176 128.028 15.221C127.315 14.2244 126.394 13.7256 125.266 13.7256C124.138 13.7256 123.281 14.1946 122.555 15.1306C121.83 16.0675 121.467 17.2926 121.467 18.8059C121.467 22.6492 122.721 24.5708 125.231 24.5708Z" fill="#00043E"/>
<path d="M135.278 36.498V10.3741H139.594L139.629 12.5362C140.665 10.7835 142.241 9.90613 144.359 9.90613C145.418 9.90613 146.402 10.1217 147.311 10.555C148.221 10.9872 148.997 11.6121 149.642 12.4289C150.286 13.2456 150.793 14.2432 151.162 15.4196C151.529 16.5971 151.714 17.9305 151.714 19.4199C151.714 20.7652 151.559 21.9963 151.248 23.1131C150.937 24.2299 150.483 25.1977 149.884 26.0134C149.285 26.8302 148.554 27.4611 147.691 27.9053C146.827 28.3494 145.844 28.572 144.739 28.572C142.644 28.572 140.963 27.6479 139.697 25.7978V36.4999H135.278V36.498ZM143.289 24.5707C145.867 24.5707 147.156 22.7455 147.156 19.094C147.156 17.5082 146.799 16.2175 146.086 15.2209C145.373 14.2243 144.452 13.7255 143.324 13.7255C142.196 13.7255 141.339 14.1945 140.613 15.1305C139.888 16.0675 139.525 17.2926 139.525 18.8058C139.525 22.6491 140.779 24.5707 143.289 24.5707Z" fill="#00043E"/>
<path d="M157.447 20.4632C157.515 21.8086 157.89 22.8777 158.568 23.6706C159.247 24.4635 160.139 24.8599 161.244 24.8599C161.98 24.8599 162.631 24.6861 163.196 24.3373C163.759 23.9895 164.122 23.5027 164.284 22.8777H168.911C168.381 24.7039 167.46 26.1089 166.149 27.0936C164.836 28.0792 163.271 28.5711 161.453 28.5711C155.79 28.5711 152.958 25.3528 152.958 18.9142C152.958 17.545 153.142 16.308 153.511 15.2031C153.879 14.0982 154.414 13.1493 155.117 12.3564C155.818 11.5635 156.676 10.9574 157.689 10.5371C158.702 10.1168 159.864 9.90619 161.177 9.90619C163.801 9.90619 165.787 10.7835 167.133 12.5363C168.48 14.29 169.153 16.932 169.153 20.4632H157.448H157.447ZM164.525 17.5083C164.502 16.8594 164.392 16.2891 164.197 15.7963C164.001 15.3044 163.742 14.8951 163.42 14.5712C163.097 14.2472 162.73 14.0068 162.315 13.8508C161.901 13.6948 161.475 13.6163 161.037 13.6163C160.139 13.6163 159.363 13.9591 158.706 14.6437C158.051 15.3283 157.676 16.2831 157.585 17.5083H164.525Z" fill="#00043E"/>
<path d="M170.707 28.1021V10.3742H174.92V12.5005C175.288 11.9004 175.674 11.4314 176.076 11.0955C176.479 10.7597 176.893 10.5014 177.319 10.3205C177.745 10.1407 178.177 10.0264 178.614 9.97773C179.051 9.93004 179.5 9.90619 179.96 9.90619H180.548V14.6983C180.133 14.6258 179.719 14.59 179.305 14.59C176.565 14.59 175.195 16.0198 175.195 18.8774V28.1021H170.706H170.707Z" fill="#00043E"/>
<path d="M71.293 28.105V10.3771H75.5059V12.5034C75.8735 11.9033 76.26 11.4343 76.6624 11.0985C77.0648 10.7626 77.4792 10.5043 77.9054 10.3235C78.3307 10.1436 78.7629 10.0293 79.2001 9.98066C79.6373 9.93297 80.0864 9.90912 80.5464 9.90912H81.1336V14.7013C80.7193 14.6287 80.305 14.593 79.8906 14.593C77.1513 14.593 75.7811 16.0228 75.7811 18.8804V28.105H71.292H71.293Z" fill="#00043E"/>
<path d="M39.1137 20.691H34.6911C34.6911 11.996 27.9535 4.92253 19.6728 4.92253C11.3921 4.92253 4.65349 11.996 4.65349 20.691H0.230957C0.230957 9.55769 8.95182 0.5 19.6728 0.5C30.3938 0.5 39.1147 9.55769 39.1147 20.691H39.1137Z" fill="#F7D659"/>
<path d="M16.6569 31.9089L7.9917 22.8661L11.1851 19.8068L16.6569 25.517L28.1589 13.5133L31.3523 16.5736L16.6569 31.9089Z" fill="#00A897"/>
</g>
<defs>
<clipPath id="clip0_789_7728">
<rect width="180.317" height="36" fill="white" transform="translate(0.230957 0.5)"/>
</clipPath>
</defs>
</svg>
