<svg width="133" height="36" viewBox="0 0 133 36" fill="none" xmlns="http://www.w3.org/2000/svg">
<path d="M37.1953 24.5057C35.8514 24.4309 34.545 24.0345 33.3861 23.3498C32.2271 22.6652 31.2495 21.7124 30.5353 20.5714C31.3968 13.7057 33.9039 11.5714 37.2211 11.5714C40.5382 11.5714 43.0582 14.1428 43.0582 18C43.0582 21.8571 40.4868 24.4285 37.2211 24.4285M37.2211 7.27712C34.8801 7.18226 32.5803 7.91318 30.7236 9.3421C28.8669 10.771 27.5716 12.8071 27.0639 15.0943C25.9633 12.7884 25.1308 10.364 24.5825 7.86855H16.3925V18.0257C16.3925 21.7157 14.721 24.4543 11.4425 24.4543C8.1639 24.4543 6.29962 21.7285 6.29962 18.0257V7.86855H1.5939V18.0257C1.48711 20.8403 2.45726 23.5899 4.30676 25.7143C5.20951 26.6972 6.31228 27.4754 7.54089 27.9966C8.7695 28.5177 10.0955 28.7698 11.4296 28.7357C17.0996 28.7357 21.0725 24.3771 21.0725 18.1414V11.2757C22.0354 14.9702 23.6272 18.4713 25.7782 21.6257L23.2582 36H28.041L29.6996 25.8171C30.2487 26.2898 30.8333 26.7197 31.4482 27.1028C33.046 28.1119 34.8825 28.6798 36.771 28.7485H37.2082C38.613 28.7631 40.0063 28.4934 41.3042 27.9554C42.602 27.4174 43.7776 26.6224 44.7601 25.6183C45.7427 24.6141 46.5119 23.4215 47.0215 22.1122C47.5311 20.803 47.7705 19.4042 47.7253 18C47.7581 16.6009 47.5093 15.2096 46.9937 13.9086C46.4781 12.6077 45.7062 11.4237 44.7239 10.427C43.7416 9.43026 42.5689 8.64122 41.2756 8.10674C39.9823 7.57225 38.5947 7.30324 37.1953 7.31569" fill="#14A800"/>
<path d="M104.85 10.1057V7.94571H100.221V28.0414H104.914V20.1728C104.914 15.3257 105.351 11.8414 111.857 12.2914V7.71428C108.823 7.48285 106.457 8.11285 104.85 10.1186" fill="#14A800"/>
<path d="M72.334 7.93286L68.9397 21.9986L65.314 7.93286H59.3483L55.7226 21.9986L52.3283 7.93286H47.584L52.7911 28.0543H58.4226L62.3311 13.77L66.2011 28.0543H71.8326L77.3354 7.93286H72.334Z" fill="#14A800"/>
<path d="M87.6469 24.5186C84.3169 24.5186 81.8227 21.8828 81.8227 18.09C81.8227 14.2971 84.3941 11.6614 87.6469 11.6614C90.8998 11.6614 93.5355 14.1428 93.5355 18C93.5355 21.8571 90.9641 24.4286 87.6984 24.4286M87.6984 7.26427C86.2914 7.24449 84.8951 7.51003 83.5936 8.04485C82.2921 8.57968 81.1125 9.3727 80.1259 10.376C79.1394 11.3794 78.3665 12.5722 77.8537 13.8826C77.341 15.1929 77.0991 16.5936 77.1427 18C77.0933 19.4112 77.3286 20.8179 77.8346 22.1362C78.3406 23.4545 79.1069 24.6575 80.0878 25.6733C81.0686 26.689 82.244 27.4969 83.5439 28.0487C84.8437 28.6004 86.2413 28.8848 87.6534 28.8848C89.0655 28.8848 90.4631 28.6004 91.7629 28.0487C93.0627 27.4969 94.2381 26.689 95.219 25.6733C96.1999 24.6575 96.9662 23.4545 97.4721 22.1362C97.9781 20.8179 98.2135 19.4112 98.1641 18C98.1986 16.6016 97.9515 15.2105 97.4373 13.9096C96.9231 12.6087 96.1524 11.4246 95.1711 10.4277C94.1898 9.43079 93.018 8.64153 91.7254 8.10691C90.4327 7.57228 89.0457 7.3032 87.6469 7.3157" fill="#14A800"/>
<path d="M118.568 18.1671H119.648L126.193 28.0543H131.477L123.955 17.0871C125.765 16.3412 127.31 15.0733 128.396 13.4452C129.481 11.8171 130.057 9.90248 130.05 7.94571H125.383C125.383 12.2786 121.963 13.9243 118.568 13.9243V0H113.875V28.0543H118.555L118.568 18.1671Z" fill="#14A800"/>
</svg>
