<svg width="158" height="38" viewBox="0 0 158 38" fill="none" xmlns="http://www.w3.org/2000/svg">
<g clip-path="url(#clip0_789_7817)">
<path d="M58.3213 34.1115H54.5311L51.5633 26.6384L49.0604 19.1296L46.5575 26.7099L43.6969 34.1115H39.9068L31.1465 10.3336H36.1881L41.8019 27.4966L47.5586 10.3336H50.4906L56.4262 27.4966L61.8612 10.3336H66.9028L58.3213 34.1115Z" fill="#6C6C6C"/>
<path d="M70.0138 27.2105C70.2998 29.2844 72.0877 30.7861 75.0197 30.7861C76.5572 30.7861 78.5595 30.214 79.4892 29.2129L82.1352 31.8231C80.3831 33.6466 77.4868 34.5406 74.9482 34.5406C69.1914 34.5406 65.7588 30.9649 65.7588 25.6015C65.7588 20.5241 69.2272 16.8412 74.6621 16.8412C80.2758 16.8412 83.7442 20.3095 83.1006 27.2105H70.0138ZM79.1316 23.7779C78.8456 21.5968 77.165 20.5241 74.7694 20.5241C72.5167 20.5241 70.6932 21.5968 70.0853 23.7779H79.1316Z" fill="#6C6C6C"/>
<path d="M107.558 31.1079C105.126 33.5036 101.944 34.6478 98.5113 34.6478C89.6795 34.6478 85.9608 28.5693 85.925 22.3834C85.8893 16.1618 89.9297 9.86871 98.5113 9.86871C101.729 9.86871 104.804 11.0844 107.236 13.5159L104.232 16.4121C102.659 14.8746 100.549 14.1595 98.5113 14.1595C92.7903 14.1595 90.2873 18.4502 90.3231 22.4192C90.3588 26.3524 92.6472 30.4643 98.5113 30.4643C100.585 30.4643 102.909 29.6062 104.483 28.0687L107.558 31.1079Z" fill="#0070BC"/>
<path d="M113.529 10.3693V34.1115H109.417V10.3693H113.529Z" fill="#0070BC"/>
<path d="M121.681 12.6577C121.681 15.8758 116.783 15.8758 116.783 12.6577C116.783 9.43969 121.681 9.43969 121.681 12.6577ZM117.14 17.3061V34.1115H121.288V17.3061H117.14Z" fill="#0070BC"/>
<path d="M139.381 31.9661C137.45 33.8612 135.412 34.6121 132.945 34.6121C128.082 34.6121 124.042 31.6801 124.042 25.7445C124.042 19.809 128.082 16.877 132.945 16.877C135.305 16.877 137.164 17.5563 138.988 19.3441L136.377 22.0974C135.376 21.2035 134.161 20.7744 133.016 20.7744C130.227 20.7744 128.189 22.8125 128.189 25.7445C128.189 28.9268 130.37 30.6431 132.945 30.6431C134.268 30.6431 135.591 30.2856 136.628 29.2486L139.381 31.9661Z" fill="#0070BC"/>
<path d="M145.281 10.3693V24.0997L150.93 17.3776H155.9V17.6279L149.071 25.2797L156.83 33.8255V34.1473H151.824L145.281 26.5669V34.1473H141.133V10.3693H145.281Z" fill="#0070BC"/>
<path d="M17.9882 0C16.7367 0 15.4852 0.607857 14.7344 1.57328C14.1622 2.2884 13.8047 3.25382 13.8047 4.18349V9.15361H14.9489V4.18349C14.9489 3.18231 15.4495 2.32416 16.2719 1.78781C17.3446 1.10845 18.3815 1.03693 19.4542 1.60903C20.4196 2.14538 21.0632 3.03928 21.0632 4.18349V9.15361H22.2074V4.18349C22.2074 2.2884 20.7772 0.607857 18.9893 0.107269C18.6318 0.0357563 18.31 0 17.9882 0Z" fill="#0070BC"/>
<path d="M13.7689 0.357544C12.5175 0.357544 11.266 0.965401 10.5151 1.89506C9.94301 2.57443 9.58545 3.5041 9.58545 4.39801V9.15359H10.7297V4.39801C10.7297 3.43259 11.2302 2.61019 12.0526 2.07385C12.446 1.82355 12.8393 1.64477 13.2326 1.57326" fill="#0070BC"/>
<path d="M16.415 2.93203C16.7011 3.36111 16.8441 3.82594 16.8441 4.39804V9.15363H17.9883V4.39804C17.9883 3.50413 17.6308 2.68174 17.0944 1.96661" fill="#0070BC"/>
<path d="M27.1419 10.2978L8.44139 9.90448L3.47127 10.6911L0.789551 34.3618L6.90387 37.4011L29.8237 34.3618L27.1419 10.2978ZM22.8869 27.9256L20.2767 29.5704L17.7738 25.6372L15.1636 27.282L14.949 18.2715L22.9942 22.3119L20.384 23.9567L22.8869 27.9256Z" fill="#0070BC"/>
</g>
<defs>
<clipPath id="clip0_789_7817">
<rect width="156.75" height="38" fill="white" transform="translate(0.789551)"/>
</clipPath>
</defs>
</svg>
