<svg width="181" height="30" viewBox="0 0 181 30" fill="none" xmlns="http://www.w3.org/2000/svg">
<g clip-path="url(#clip0_789_7791)">
<path fill-rule="evenodd" clip-rule="evenodd" d="M116.718 5.98C118.812 5.98 120.674 6.50375 122.269 7.53875L122.607 7.7675V6.39H128.736V28.4825H122.607V27.2925C120.977 28.4762 118.998 29.075 116.719 29.075C113.534 29.075 110.547 27.8687 108.306 25.6775C106.071 23.4937 104.839 20.59 104.839 17.505C104.835 15.9798 105.14 14.4697 105.736 13.0657C106.332 11.6617 107.206 10.393 108.306 9.33625C110.539 7.17125 113.527 5.98 116.718 5.98ZM168.348 5.98C170.442 5.98 172.304 6.50375 173.899 7.53875L174.237 7.7675V6.39H180.366V28.4825H174.237V27.2925C172.607 28.4762 170.628 29.075 168.349 29.075C165.164 29.075 162.177 27.8687 159.936 25.6775C157.701 23.4937 156.471 20.59 156.471 17.505C156.466 15.9799 156.771 14.4698 157.367 13.0659C157.962 11.6619 158.836 10.3931 159.936 9.33625C162.169 7.1725 165.157 5.98 168.348 5.98ZM144.591 5.98C147.206 5.98 149.434 6.775 151.034 8.28C152.777 9.9175 153.699 12.29 153.779 15.3325L153.786 15.7712V28.4825H147.657V16.6837C147.657 14.8412 147.204 13.5062 146.312 12.7175C145.609 12.095 144.637 11.7925 143.341 11.7925C142.041 11.7925 141.067 12.0862 140.368 12.69C139.537 13.41 139.088 14.6012 139.032 16.235L139.026 16.5925V28.4825H132.897V6.39H139.026V7.775L139.378 7.52875L139.753 7.28375C140.857 6.59625 142.303 5.98 144.591 5.98ZM80.3882 5.98V11.7925H80.1695C76.727 11.7925 74.5595 12.2437 73.3495 13.2137C72.3907 13.9825 71.9682 15.0862 71.9245 16.98L71.9207 17.3225V28.4825H65.792V6.39H71.9207V7.78375C73.8582 6.4775 75.8682 6.015 79.7007 5.9825L80.3882 5.98ZM7.22197 6.39L11.5182 20.1525L16.5307 6.39H21.8357L26.7582 20.1487L31.0982 6.39H38.002L29.932 28.4825H23.9795L19.187 15.1075L14.5745 28.4825H8.34072L0.365723 6.39H7.22197ZM89.997 0L89.9645 15.7L97.0895 6.98625H105.308L96.2732 17.7337L105.386 28.405H97.1295L90.1232 19.0425L89.997 28.405H83.8495V0H89.997ZM168.348 11.7912C165.182 11.7912 162.506 14.4075 162.506 17.5037C162.506 19.0175 163.116 20.4562 164.223 21.5537C164.765 22.0956 165.408 22.5254 166.116 22.8186C166.823 23.1118 167.582 23.2626 168.348 23.2625C169.908 23.2661 171.406 22.6517 172.514 21.5537C173.626 20.4575 174.237 19.02 174.237 17.5037C174.237 16.0087 173.624 14.585 172.514 13.4962C171.404 12.4014 169.907 11.7887 168.348 11.7912ZM116.718 11.7912C113.552 11.7912 110.876 14.4075 110.876 17.5037C110.876 19.0175 111.486 20.4562 112.593 21.5537C113.135 22.0956 113.778 22.5254 114.486 22.8186C115.193 23.1118 115.952 23.2626 116.718 23.2625C118.278 23.266 119.776 22.6516 120.884 21.5537C121.996 20.4575 122.607 19.02 122.607 17.5037C122.607 16.0087 121.994 14.585 120.884 13.4962C119.774 12.4014 118.277 11.7887 116.718 11.7912Z" fill="#002D72"/>
<path fill-rule="evenodd" clip-rule="evenodd" d="M50.2544 10.9537C52.0497 9.93144 54.0809 9.39584 56.1469 9.4C57.1029 9.39966 58.0555 9.5138 58.9844 9.74C57.8731 8.5339 56.5232 7.57204 55.0203 6.9155C53.5174 6.25896 51.8944 5.92208 50.2544 5.92625C48.6144 5.92208 46.9914 6.25896 45.4886 6.9155C43.9857 7.57204 42.6357 8.5339 41.5244 9.74C42.4537 9.5137 43.4067 9.39956 44.3632 9.4C46.5094 9.4 48.5219 9.96625 50.2544 10.9537Z" fill="#FFC600"/>
<path fill-rule="evenodd" clip-rule="evenodd" d="M38.9384 14.3C38.6289 15.3517 38.4719 16.4424 38.4722 17.5388C38.4722 22.9888 42.2809 27.56 47.4159 28.8125C45.4779 26.7164 44.3905 23.9734 44.3659 21.1188C41.7438 19.6318 39.7988 17.1891 38.9384 14.3Z" fill="#FF4807"/>
<path fill-rule="evenodd" clip-rule="evenodd" d="M44.3655 21.1187L44.363 21.0137C44.363 16.7137 46.733 12.9625 50.2542 10.9537C48.4593 9.93164 46.4285 9.39605 44.363 9.39998C43.3842 9.39998 42.4342 9.51873 41.5255 9.73998C40.325 11.0412 39.4397 12.6009 38.938 14.2987C39.7981 17.1875 41.7439 19.6314 44.3655 21.1187Z" fill="#FF97B1"/>
<path fill-rule="evenodd" clip-rule="evenodd" d="M56.1455 21.1188C56.1207 23.9736 55.0328 26.7167 53.0942 28.8125C58.2292 27.56 62.038 22.9875 62.038 17.5388C62.038 16.4138 61.8755 15.3275 61.5717 14.2988C60.7116 17.1875 58.7671 19.6315 56.1455 21.1188Z" fill="#0A78FF"/>
<path fill-rule="evenodd" clip-rule="evenodd" d="M56.1469 9.39999C54.0809 9.39589 52.0497 9.93149 50.2544 10.9537C53.7769 12.9625 56.1469 16.715 56.1469 21.0137L56.1456 21.1187C58.7673 19.6314 60.7117 17.1875 61.5719 14.2987C61.0702 12.6009 60.1849 11.0412 58.9844 9.73999C58.0555 9.51379 57.1029 9.39965 56.1469 9.39999Z" fill="#00B450"/>
<mask id="mask0_789_7791" style="mask-type:luminance" maskUnits="userSpaceOnUse" x="44" y="21" width="13" height="9">
<path d="M44.3657 21.1188H56.1457V29.1525H44.3657V21.1188Z" fill="#BF17A7"/>
</mask>
<g mask="url(#mask0_789_7791)">
<path fill-rule="evenodd" clip-rule="evenodd" d="M50.2557 22.6725C48.1906 22.6762 46.1603 22.1407 44.3657 21.1188C44.3907 23.9736 45.4785 26.7166 47.417 28.8125C49.2821 29.2679 51.2294 29.2679 53.0945 28.8125C55.033 26.7167 56.1209 23.9736 56.1457 21.1188C54.3511 22.1407 52.3208 22.6762 50.2557 22.6725Z" fill="#BF17A7"/>
</g>
<path fill-rule="evenodd" clip-rule="evenodd" d="M44.3633 21.0125L44.3645 21.1187C46.1592 22.1402 48.1895 22.6753 50.2545 22.6712C52.32 22.6755 54.3507 22.1404 56.1458 21.1187V21.0137C56.1458 16.7137 53.777 12.9625 50.2545 10.9537C46.7333 12.9625 44.3633 16.715 44.3633 21.0137" fill="#002D72"/>
</g>
<defs>
<clipPath id="clip0_789_7791">
<rect width="180" height="30" fill="white" transform="translate(0.365723)"/>
</clipPath>
</defs>
</svg>
