<svg width="75" height="74" viewBox="0 0 75 74" fill="none" xmlns="http://www.w3.org/2000/svg">
<g clip-path="url(#clip0_346_160)">
<path fill-rule="evenodd" clip-rule="evenodd" d="M40.4666 73.1C74.0066 73.1 74.2666 57.97 74.2666 39.3C74.2666 20.63 74.0066 5.5 40.4666 5.5C6.92661 5.5 6.66663 20.63 6.66663 39.3C6.66663 57.97 6.92661 73.1 40.4666 73.1Z" fill="#EBFFFF"/>
<path d="M53.1866 66.47C69.1066 61.7 69.2667 49.3 69.2667 34.76C69.3632 30.3659 69.1761 25.9701 68.7066 21.6C68.5288 20.2872 68.2784 18.9852 67.9566 17.7C67.2147 14.2445 65.5726 11.0465 63.1966 8.43002C62.779 7.98399 62.3385 7.56008 61.8766 7.16001C60.5857 6.04105 59.1534 5.09632 57.6166 4.35001C55.8291 3.48789 53.9554 2.81749 52.0267 2.35001C44.2967 0.450014 35.2167 1.06002 27.7567 1.25002C26.5767 1.36002 25.4567 1.49002 24.3867 1.65002C5.33666 4.31002 2.25666 14.47 1.76666 27.42L1.67657 32.15C1.67657 33.01 1.67657 33.88 1.67657 34.76C1.67657 53.43 1.93662 68.56 35.4766 68.56C38.1466 68.56 40.5966 68.46 42.8666 68.28" stroke="#786FF4" stroke-width="2" stroke-miterlimit="10" stroke-linecap="round"/>
<path d="M48.2466 67.61L49.0167 67.47" stroke="#786FF4" stroke-width="2.92" stroke-miterlimit="10" stroke-linecap="round"/>
<path d="M49.5666 36.57H40.3166C39.8073 36.5934 39.3277 36.8164 38.9815 37.1906C38.6353 37.5649 38.4503 38.0604 38.4666 38.57V48.75C38.4652 49.2555 38.6551 49.7427 38.9984 50.1137C39.3416 50.4848 39.8126 50.7121 40.3166 50.75H49.5666C50.0706 50.7121 50.5416 50.4848 50.8848 50.1137C51.228 49.7427 51.418 49.2555 51.4166 48.75C51.4166 48.75 51.4166 47.61 51.4166 46.06C51.1366 43.23 51.1366 40.06 50.8266 37.13C50.6621 36.9442 50.4606 36.7949 50.235 36.6915C50.0094 36.5882 49.7648 36.5332 49.5167 36.53L49.5666 36.57ZM44.9966 30.3C45.4812 30.2928 45.9623 30.2188 46.4266 30.08C46.8782 29.9391 47.314 29.7514 47.7266 29.52C48.5517 29.084 49.2877 28.4972 49.8967 27.79C50.8814 26.6241 51.42 25.1462 51.4166 23.62C51.1866 20.28 49.0966 17.14 44.9366 17.14C43.9468 17.1377 42.9698 17.3638 42.0817 17.8009C41.1937 18.238 40.4185 18.8742 39.8166 19.66C39.5303 20.0251 39.2855 20.4209 39.0866 20.84C38.6366 24.46 38.6367 28.64 43.2567 30.02C43.8197 30.1985 44.406 30.2928 44.9966 30.3V30.3ZM33.2767 30.1H17.7366L18.9466 28.1C19.6766 26.89 20.6466 25.27 21.6066 23.65C22.5666 22.03 23.5566 20.41 24.2866 19.2C25.0166 17.99 25.5067 17.2 25.5067 17.2L26.7266 19.2L27.3066 20.2C29.2366 22.43 30.3066 25.56 32.0666 28.12C32.4266 28.74 32.7366 29.24 32.9466 29.6L33.2767 30.1ZM24.8566 50.87C25.4981 50.8696 26.1369 50.7856 26.7567 50.62C27.3456 50.4535 27.9153 50.2256 28.4566 49.94C31.3266 48.55 32.3666 45.41 31.7266 41.86C31.5693 41.2602 31.3304 40.6849 31.0167 40.15C30.3877 39.0748 29.4881 38.1831 28.4073 37.5638C27.3265 36.9444 26.1023 36.6191 24.8566 36.62V36.62C20.8566 37.05 18.7866 39.14 17.7266 43.76C17.7366 44.3949 17.824 45.0262 17.9866 45.64C18.4022 47.1431 19.2991 48.4685 20.54 49.4132C21.7808 50.3578 23.2971 50.8696 24.8566 50.87V50.87Z" stroke="#786FF4" stroke-width="2.14" stroke-linecap="round" stroke-linejoin="round"/>
</g>
<defs>
<clipPath id="clip0_346_160">
<rect width="74" height="74" fill="white" transform="translate(0.666626)"/>
</clipPath>
</defs>
</svg>
