<svg width="75" height="74" viewBox="0 0 75 74" fill="none" xmlns="http://www.w3.org/2000/svg">
<g clip-path="url(#clip0_346_150)">
<path fill-rule="evenodd" clip-rule="evenodd" d="M40.1333 73.1C73.6733 73.1 73.9333 57.97 73.9333 39.3C73.9333 20.63 73.6733 5.5 40.1333 5.5C6.5933 5.5 6.33331 20.63 6.33331 39.3C6.33331 57.97 6.5933 73.1 40.1333 73.1Z" fill="#EBFFFF"/>
<path d="M57.4833 5.06998C55.6958 4.20786 53.822 3.53746 51.8933 3.06998C44.1633 1.16998 35.0833 1.77999 27.6233 1.96999C26.4433 2.07999 25.3233 2.20999 24.2533 2.36999C1.7333 5.51999 1.53333 19.14 1.53333 35.48C1.53333 54.15 1.79331 69.28 35.3333 69.28C68.8733 69.28 69.1333 54.15 69.1333 35.48C69.2298 31.0858 69.0428 26.69 68.5733 22.32C68.3955 21.0071 68.1451 19.7052 67.8233 18.42C67.0814 14.9645 65.4393 11.7664 63.0633 9.14999" stroke="#786FF4" stroke-width="2" stroke-miterlimit="10" stroke-linecap="round"/>
<path d="M44.4358 32.8344C41.7528 29.1901 37.6538 25.1801 33.9407 21.5476C32.711 20.3447 31.5237 19.1832 30.4441 18.09H30.4345L30.3002 17.9876C30.1298 17.8577 29.9186 17.7929 29.7046 17.8048C29.4907 17.8167 29.2879 17.9045 29.133 18.0525C28.978 18.2005 28.881 18.3989 28.8592 18.6122C28.8384 18.817 28.8884 19.0225 29.0005 19.1946C30.6299 21.0579 33.023 23.357 35.0438 25.2985C35.4693 25.7072 35.8782 26.1002 36.2601 26.4698C36.2604 26.4701 36.2608 26.4704 36.2611 26.4708L35.9133 26.83C38.3473 29.1635 40.613 31.6664 42.6933 34.32L44.4358 32.8344ZM44.4358 32.8344L44.4292 32.8401L44.5293 32.9602L44.5354 32.9554C44.6222 33.0481 44.7033 33.1335 44.7834 33.2176C45.0164 33.4626 45.2396 33.6974 45.5637 34.0754L45.5703 34.0832L45.5773 34.0906C45.9288 34.4684 46.1967 34.916 46.3635 35.4043C46.5284 35.887 46.5909 36.3986 46.547 36.9066C46.2998 38.3672 45.3808 39.5171 44.2271 40.6243C43.8518 40.9844 43.468 41.3255 43.0798 41.6704C42.864 41.8622 42.6468 42.0552 42.4291 42.2533C41.841 42.7882 41.2666 43.3452 40.7973 43.9489L40.7598 43.9865L40.3897 44.3566L40.3896 44.3565L40.2998 44.4465L40.2997 44.4465L40.3086 44.4555C38.7311 46.5253 36.8718 48.3643 34.7846 49.919L34.7567 49.9398L34.732 49.9642C34.1513 50.5375 33.3714 50.864 32.5555 50.8752C31.7423 50.8865 30.9562 50.5837 30.3606 50.0302L29.4884 49.158L29.4868 49.1564L26.0886 45.7282L26.0884 45.728L20.9899 40.5795C20.9896 40.5793 20.9894 40.5791 20.9892 40.5789C20.8328 40.4198 20.6753 40.2645 20.5192 40.1106C20.0674 39.6652 19.627 39.2309 19.2565 38.7472C18.7723 38.1151 18.462 37.4619 18.4633 36.713C18.5329 35.3067 19.2862 34.2069 20.3108 33.1883C20.7932 32.7088 21.3208 32.2615 21.8518 31.8113C21.8869 31.7816 21.922 31.7518 21.9571 31.7221C22.5131 31.2503 23.0732 30.7701 23.5424 30.268L30.3858 23.4646L30.3869 23.4636C30.5053 23.3451 30.6659 23.2786 30.8333 23.2786C31.0007 23.2786 31.1613 23.3451 31.2797 23.4636C31.3981 23.582 31.4646 23.7425 31.4646 23.91C31.4646 24.0775 31.3981 24.238 31.2797 24.3564L31.2797 24.3564L31.2729 24.3634C29.0158 26.7104 23.2849 32.421 21.0172 34.4798L21.0025 34.4932L20.9888 34.5077C20.4668 35.0637 20.126 35.5667 19.9746 36.0534C19.8149 36.567 19.8775 37.0263 20.0861 37.4436C20.2813 37.8339 20.5998 38.1774 20.9234 38.4966C21.0432 38.6148 21.1635 38.7294 21.2851 38.8454C21.513 39.0628 21.7458 39.2849 21.9898 39.5432L21.9955 39.5493L22.0014 39.5552L30.5814 48.0552L30.5819 48.0557L31.4119 48.8757L31.419 48.8827L31.4264 48.8895C31.5846 49.0336 31.7703 49.1442 31.9724 49.2144C32.1744 49.2846 32.3887 49.313 32.6021 49.298C32.8155 49.2829 33.0236 49.2247 33.2138 49.1268C33.3809 49.0408 33.5312 48.9258 33.6577 48.7873C35.3625 47.6216 36.7217 46.1197 37.982 44.6463C38.1667 44.4304 38.3489 44.2155 38.5297 44.0024C39.6095 42.7292 40.6362 41.5185 41.8057 40.5322L41.8235 40.5172L41.8399 40.5005C42.0245 40.3127 42.2435 40.1116 42.4876 39.8873C42.6187 39.7668 42.757 39.6397 42.9012 39.5045C43.2996 39.1307 43.724 38.7106 44.0651 38.2696C44.4012 37.835 44.6942 37.3327 44.7674 36.793C44.8445 36.2239 44.6693 35.6721 44.193 35.1925C44.0677 35.043 43.8762 34.846 43.6913 34.6557L43.6582 34.6216C43.447 34.4041 43.2371 34.1869 43.0805 34.0035" fill="#786FF4" stroke="#786FF4"/>
<path d="M44.0533 35.77C41.1026 36.2931 38.1098 36.5409 35.1133 36.51H34.1133C29.1133 36.6 21.3033 35.76 21.3033 35.76" fill="#786FF4"/>
<path d="M44.0533 35.77C41.1026 36.2931 38.1098 36.5409 35.1133 36.51H34.1133C29.1133 36.6 21.3033 35.76 21.3033 35.76" stroke="#786FF4" stroke-width="2.45" stroke-miterlimit="10" stroke-linecap="round"/>
<path d="M53.5633 47.46C53.5633 48.5606 53.1261 49.6162 52.3478 50.3945C51.5695 51.1727 50.514 51.61 49.4133 51.61C48.3127 51.61 47.2571 51.1727 46.4788 50.3945C45.7005 49.6162 45.2633 48.5606 45.2633 47.46C45.2633 45.17 49.4133 39.29 49.4133 39.29C49.4133 39.29 53.5633 45.17 53.5633 47.46Z" fill="#786FF4" stroke="#786FF4" stroke-width="2.45" stroke-miterlimit="10" stroke-linecap="round"/>
</g>
<defs>
<clipPath id="clip0_346_150">
<rect width="74" height="73" fill="white" transform="translate(0.333313 0.5)"/>
</clipPath>
</defs>
</svg>
