<svg width="32" height="32" viewBox="0 0 32 32" fill="none" xmlns="http://www.w3.org/2000/svg">
<path fill-rule="evenodd" clip-rule="evenodd" d="M16.2784 19.4502C16.2784 18.4621 16.0478 17.6057 15.6032 16.8975C15.1236 16.1766 14.4162 15.6374 13.594 15.3659C14.1704 15.0695 14.615 14.7237 14.9115 14.3778C15.455 13.7191 15.7349 12.8627 15.7349 11.8087C15.754 10.854 15.4653 9.9186 14.9115 9.14076C14.0386 7.93855 12.54 7.3292 10.4155 7.29626H2V24.7037H9.83912C10.7284 24.7037 11.5519 24.6214 12.3094 24.4732C12.9696 24.3458 13.5955 24.0804 14.1461 23.6944C14.6966 23.3085 15.1595 22.8106 15.5044 22.2334C16.0149 21.41 16.2784 20.4877 16.2784 19.4502ZM20.2638 9.75011H27.2795V8.00442H20.2803V9.75011H20.2638ZM6.01837 14.1473H9.70737C10.4649 14.1473 11.0743 14.0155 11.5519 13.7191C12.013 13.4391 12.26 12.9286 12.26 12.1875C12.26 11.3805 11.9306 10.837 11.3213 10.59C10.6499 10.3811 9.94932 10.281 9.24624 10.2936H6.01837V14.1308V14.1473ZM11.5025 17.3422C12.2436 17.6716 12.6059 18.2974 12.6059 19.2032C12.6059 20.2736 12.2271 20.9982 11.4531 21.377C11.0413 21.5911 10.4649 21.6899 9.70737 21.6899H6.01837V17.0458H9.75677C10.5143 17.0458 11.0743 17.1446 11.5025 17.3422ZM29.8816 16.3541C29.9639 16.9305 30.0133 17.7704 29.9968 18.8408H20.9061C20.9555 20.0925 21.4002 20.9818 22.2236 21.4758C22.7607 21.7952 23.3776 21.9551 24.0022 21.937C24.7433 21.937 25.3527 21.7723 25.8138 21.377C26.0773 21.1629 26.3078 20.883 26.489 20.5207H29.8157C29.7333 21.2618 29.3216 22.0028 28.6135 22.7769C28.0065 23.3973 27.2733 23.8802 26.4635 24.1927C25.6538 24.5052 24.7863 24.6402 23.9199 24.5884C22.2565 24.5884 20.7908 24.0944 19.5227 23.0568C18.2546 22.0358 17.6124 20.3724 17.6124 18.0668C17.6124 15.8929 18.1888 14.2296 19.3416 13.0768C20.4944 11.924 21.9766 11.3476 23.7881 11.3476C24.8915 11.3476 25.8632 11.5452 26.736 11.9404C27.6089 12.3192 28.317 12.9286 28.877 13.7849C29.404 14.526 29.7333 15.3824 29.8816 16.3705V16.3541ZM25.7314 14.7072C26.2584 15.1683 26.5549 15.8271 26.6043 16.6834H20.9884C21.1037 15.86 21.3837 15.2342 21.8613 14.7566C22.3059 14.279 22.9647 14.0484 23.8046 14.0484C24.5786 14.0484 25.2209 14.2625 25.7314 14.7072Z" fill="#999999"/>
</svg>
