<svg width="40" height="32" viewBox="0 0 40 32" fill="none" xmlns="http://www.w3.org/2000/svg">
<path fill-rule="evenodd" clip-rule="evenodd" d="M20 28C23.1826 28 26.2348 26.7357 28.4853 24.4853C30.7357 22.2348 32 19.1826 32 16C32 12.8174 30.7357 9.76516 28.4853 7.51472C26.2348 5.26428 23.1826 4 20 4C16.8174 4 13.7652 5.26428 11.5147 7.51472C9.26428 9.76516 8 12.8174 8 16C8 19.1826 9.26428 22.2348 11.5147 24.4853C13.7652 26.7357 16.8174 28 20 28ZM20 25.21C18.1214 25.2167 16.287 24.6401 14.75 23.56C15.38 22.51 17.3 19.885 21.395 18.325C22.1527 20.3794 22.7446 22.4911 23.165 24.64C22.16 25.015 21.095 25.21 20 25.21ZM24.35 17.62C25.145 19.975 25.61 21.97 25.85 23.095C27.4376 21.7823 28.5411 19.9767 28.985 17.965C27.4642 17.5971 25.8934 17.4805 24.335 17.62H24.35ZM27.53 10.75C28.46 12.07 29.03 13.63 29.15 15.235C27.226 14.9281 25.2727 14.8476 23.33 14.995L23.285 14.875L22.88 13.975C24.6296 13.221 26.2107 12.1244 27.53 10.75ZM25.67 8.8C24.6962 8.02869 23.5757 7.46342 22.3766 7.13852C21.1776 6.81362 19.925 6.73587 18.695 6.91C19.355 7.84 20.495 9.535 21.605 11.53C23.1477 10.9296 24.5366 9.99168 25.67 8.785V8.8ZM15.665 7.9C16.205 8.665 17.39 10.39 18.59 12.46C15.365 13.24 12.53 13.405 11.18 13.435C11.5291 12.2637 12.1065 11.173 12.8787 10.2256C13.651 9.27827 14.6031 8.493 15.68 7.915L15.665 7.9ZM20.285 15.64L19.985 15.01C16.025 16.12 12.23 16.27 10.805 16.285C10.8637 18.2046 11.5249 20.0571 12.695 21.58C13.67 20.155 16.205 17.035 20.285 15.64Z" fill="#999999"/>
</svg>
