<svg width="32" height="32" viewBox="0 0 32 32" fill="none" xmlns="http://www.w3.org/2000/svg">
<path fill-rule="evenodd" clip-rule="evenodd" d="M11.5 4H20.5C22.4891 4 24.3968 4.79018 25.8033 6.1967C27.2098 7.60322 28 9.51088 28 11.5V20.5C28 22.4891 27.2098 24.3968 25.8033 25.8033C24.3968 27.2098 22.4891 28 20.5 28H11.5C9.51088 28 7.60322 27.2098 6.1967 25.8033C4.79018 24.3968 4 22.4891 4 20.5V11.5C4 9.51088 4.79018 7.60322 6.1967 6.1967C7.60322 4.79018 9.51088 4 11.5 4ZM20.275 25.24C21.5932 25.236 22.856 24.7096 23.7867 23.7761C24.7174 22.8426 25.24 21.5782 25.24 20.26V11.74C25.24 10.4218 24.7174 9.1574 23.7867 8.2239C22.856 7.2904 21.5932 6.76397 20.275 6.76H11.725C10.4068 6.76397 9.14399 7.2904 8.2133 8.2239C7.28261 9.1574 6.75999 10.4218 6.76 11.74V20.26C6.76 21.5808 7.28468 22.8475 8.21861 23.7814C9.15254 24.7153 10.4192 25.24 11.74 25.24H20.275Z" fill="#999999"/>
<path fill-rule="evenodd" clip-rule="evenodd" d="M9.84999 16C9.84999 15.1923 10.0091 14.3926 10.3181 13.6465C10.6272 12.9003 11.0802 12.2223 11.6513 11.6512C12.2224 11.0802 12.9003 10.6272 13.6465 10.3181C14.3926 10.009 15.1924 9.84996 16 9.84996C16.8076 9.84996 17.6073 10.009 18.3535 10.3181C19.0996 10.6272 19.7776 11.0802 20.3487 11.6512C20.9198 12.2223 21.3728 12.9003 21.6818 13.6465C21.9909 14.3926 22.15 15.1923 22.15 16C22.15 17.631 21.502 19.1953 20.3487 20.3487C19.1953 21.502 17.6311 22.15 16 22.15C14.3689 22.15 12.8046 21.502 11.6513 20.3487C10.4979 19.1953 9.84999 17.631 9.84999 16ZM12.445 16C12.445 16.4668 12.5369 16.9291 12.7156 17.3604C12.8943 17.7917 13.1561 18.1836 13.4862 18.5137C13.8163 18.8438 14.2082 19.1057 14.6396 19.2843C15.0709 19.463 15.5331 19.555 16 19.555C16.4668 19.555 16.9291 19.463 17.3604 19.2843C17.7917 19.1057 18.1836 18.8438 18.5138 18.5137C18.8439 18.1836 19.1057 17.7917 19.2844 17.3604C19.463 16.9291 19.555 16.4668 19.555 16C19.555 15.0571 19.1804 14.1529 18.5138 13.4862C17.8471 12.8195 16.9428 12.445 16 12.445C15.0571 12.445 14.1529 12.8195 13.4862 13.4862C12.8195 14.1529 12.445 15.0571 12.445 16ZM22.285 10.96C22.4222 10.9771 22.5614 10.9648 22.6935 10.924C22.8255 10.8832 22.9474 10.8148 23.051 10.7233C23.1547 10.6318 23.2376 10.5193 23.2945 10.3933C23.3513 10.2673 23.3807 10.1307 23.3807 9.99246C23.3807 9.85423 23.3513 9.71758 23.2945 9.59157C23.2376 9.46557 23.1547 9.35309 23.051 9.2616C22.9474 9.1701 22.8255 9.10169 22.6935 9.06089C22.5614 9.02009 22.4222 9.00784 22.285 9.02496C22.0264 9.02496 21.7784 9.12768 21.5956 9.31053C21.4127 9.49337 21.31 9.74137 21.31 9.99996C21.31 10.2585 21.4127 10.5065 21.5956 10.6894C21.7784 10.8722 22.0264 10.975 22.285 10.975V10.96Z" fill="#999999"/>
</svg>
