<svg width="32" height="32" viewBox="0 0 32 32" fill="none" xmlns="http://www.w3.org/2000/svg">
<path fill-rule="evenodd" clip-rule="evenodd" d="M7.28619 5C5.61448 5 4.5 6.1 4.5 7.5575C4.5 8.9875 5.57268 10.1287 7.23047 10.1287H7.25833C8.97184 10.1287 10.0445 8.9875 10.0445 7.5575C10.0167 6.11375 8.97184 5 7.28619 5ZM27.5 18.475V27H22.5684V19.0525C22.5684 17.0588 21.8719 15.6975 20.0748 15.6975C18.7096 15.6975 17.9016 16.6188 17.5533 17.4988C17.414 17.8288 17.3861 18.2688 17.3861 18.7088V27H12.4406C12.4406 27 12.4964 13.5525 12.4406 12.15H17.3722V14.2537L17.3583 14.2812L17.3304 14.3088H17.3722V14.2537C17.8128 13.4814 18.4609 12.8442 19.245 12.4124C20.0292 11.9805 20.9189 11.7707 21.8162 11.8062C25.0621 11.8062 27.4861 13.9238 27.4861 18.4888L27.5 18.475ZM9.72411 27H4.77862V12.15H9.71018V27H9.72411Z" fill="#999999"/>
</svg>
