<svg width="32" height="32" viewBox="0 0 32 32" fill="none" xmlns="http://www.w3.org/2000/svg">
<path d="M27.1335 10.792C27.1505 11.0171 27.1505 11.2422 27.1505 11.4693C27.1505 18.3902 21.3719 26.3721 10.8055 26.3721V26.3679C7.68418 26.3721 4.62767 25.5569 2 24.0198C2.45387 24.0696 2.91001 24.0945 3.3673 24.0955C5.95401 24.0976 8.46679 23.3063 10.5018 21.8491C8.04363 21.8066 5.88804 20.3452 5.135 18.2118C5.9961 18.3632 6.88336 18.3321 7.72854 18.1216C5.04855 17.6279 3.12046 15.481 3.12046 12.9877C3.12046 12.9649 3.12046 12.9431 3.12046 12.9213C3.91899 13.3268 4.81308 13.5519 5.72765 13.5768C3.20349 12.0387 2.42543 8.97703 3.94971 6.58329C6.8663 9.8555 11.1695 11.8447 15.789 12.0553C15.326 10.2361 15.9585 8.32985 17.4509 7.05105C19.7646 5.06802 23.4035 5.16966 25.5785 7.27818C26.865 7.0469 28.0981 6.61648 29.2265 6.00664C28.7976 7.21907 27.9001 8.24895 26.7012 8.9034C27.8399 8.78101 28.9523 8.50306 30 8.07886C29.2288 9.1326 28.2573 10.0505 27.1335 10.792Z" fill="#999999"/>
</svg>
