<svg width="412" height="400" viewBox="0 0 412 400" fill="none" xmlns="http://www.w3.org/2000/svg">
<path d="M374.622 218.661C375.173 221.122 371.784 393.498 368.635 393.825C365.487 394.152 281.062 397.92 209.868 397.266C138.674 396.612 99.9283 397.902 98.6552 395.064C97.382 392.225 95.8339 229.053 97.7092 227.47C99.5846 225.888 373.986 215.788 374.622 218.661Z" fill="white"/>
<path d="M94.8514 311.859C95.0407 317.967 94.8514 324.074 94.8514 330.182C94.8514 344.6 94.8514 359 94.8514 373.401C94.8514 379.922 94.5593 386.425 94.37 392.946C94.284 396.61 95.8841 398.296 99.5315 398.228H103.884H107.945V398.727C119.558 398.727 131.188 398.727 142.802 398.727C154.019 398.727 165.168 398.314 176.437 398.365C192.162 398.365 207.888 398.675 223.613 398.916C247.58 399.277 271.563 399.948 295.546 400C307.779 400 319.995 398.881 332.228 398.4C341.26 398.038 350.293 397.918 359.325 397.608C362.525 397.488 365.726 397.144 368.926 396.903C371.111 396.748 371.609 395.079 371.781 393.462C372.246 389.333 372.745 385.204 372.848 381.074C373.089 371.543 373.037 361.994 373.244 352.463C373.553 338.091 373.949 323.753 374.431 309.45C374.586 304.908 375.257 300.401 375.447 295.858C375.928 283.815 376.496 271.772 376.599 259.728C376.737 246.36 376.427 233.009 376.238 219.658C376.195 217.179 375.971 214.706 375.567 212.26C375.326 210.797 374.775 209.318 372.641 210.677C371.747 211.143 370.715 211.271 369.734 211.038C359.04 209.008 348.17 208.046 337.286 208.165C330.249 208.165 323.195 208.492 316.175 208.647C310.893 208.767 305.611 208.647 300.346 208.939C291.159 209.352 281.972 210.178 272.819 210.384C262.048 210.648 251.29 210.648 240.543 210.384C230.908 210.161 221.308 209.438 211.69 209.008C204.275 208.664 196.842 208.303 189.427 208.234C178.984 208.113 168.558 208.096 158.131 208.234C151.8 208.389 145.52 209.129 139.206 209.49C135.318 209.731 131.395 209.645 127.506 209.92C123.274 210.212 119.094 210.832 114.861 211.176C113.105 211.233 111.347 211.187 109.597 211.038C105.984 210.9 102.353 210.694 98.7402 210.608C97.8807 210.546 97.0289 210.808 96.3535 211.343C95.6781 211.878 95.2281 212.648 95.0925 213.499C94.4573 216.641 94.0606 219.828 93.9055 223.03C93.5786 238.515 93.1659 253.861 93.3208 269.277C93.3724 283.523 94.3869 297.682 94.8514 311.859ZM98.2924 235.005C98.2924 232.751 98.9982 231.822 101.252 231.736C105.295 231.598 109.304 231.133 113.295 231.065C122.294 230.927 131.291 230.961 140.307 230.875C147.739 230.875 155.189 230.549 162.673 230.583C173.237 230.583 183.801 230.979 194.365 230.996C211.484 230.996 228.603 230.738 245.704 230.996C262.806 231.254 279.529 231.891 296.441 232.286C309.173 232.579 321.905 232.751 334.636 232.974C345.183 233.164 355.747 233.319 366.311 233.577C371.885 233.714 371.885 233.8 371.661 239.495V240.114C371.306 251.997 370.95 263.88 370.594 275.763C370.371 283.213 370.267 290.662 369.992 298.129C369.682 306.233 369.166 314.336 368.908 322.457C368.719 328.204 368.908 333.967 368.736 339.662C368.615 345.013 368.393 350.381 368.169 355.749C367.676 367.655 367.142 379.56 366.569 391.466C366.475 391.74 366.315 391.987 366.101 392.182C365.888 392.377 365.628 392.516 365.347 392.584C356.745 392.791 348.142 392.757 339.54 393.083C327.634 393.548 315.728 394.649 303.822 394.804C287.443 394.993 271.133 394.563 254.668 394.374C235.742 394.15 216.817 393.806 197.806 393.668C182.115 393.548 166.441 393.668 150.767 393.668H131.842C121.966 393.668 112.108 393.668 102.25 393.668C101.373 393.668 100.048 394.236 100.099 392.378C100.099 389.9 99.9269 387.423 100.013 384.946C100.237 377.496 100.701 370.063 100.804 362.579C100.804 356.471 100.477 350.364 100.443 344.221C100.443 339.301 100.753 334.38 100.598 329.46C100.22 317.021 99.5656 304.616 99.1871 292.177C98.9118 283.385 98.9295 274.593 98.809 265.802C98.5338 255.513 98.5336 245.259 98.2411 235.005H98.2924Z" fill="#00C0CE"/>
<path d="M100.703 270.277C97.8476 284.196 88.2115 312.064 83.7503 324.257C80.9249 326.191 71.9729 330.949 58.7678 334.518C42.2615 338.979 34.6775 333.626 26.6475 327.826C20.2234 323.187 29.3242 298.829 34.6775 287.23L52.9683 238.603C59.3626 226.558 74.828 199.523 85.5348 187.746C98.9183 173.024 131.931 172.578 139.961 170.793C147.991 169.009 161.821 164.548 169.851 163.656C177.881 162.763 184.573 164.102 189.926 165.44C195.279 166.778 197.51 172.578 200.187 177.931C202.863 183.285 193.495 181.5 189.926 179.27C186.357 177.039 176.543 175.701 172.974 175.701C170.118 175.701 168.81 178.08 168.512 179.27C172.081 181.798 180.29 188.549 184.573 195.33C188.855 202.111 186.952 205.591 185.465 206.483L180.558 208.267L177.881 212.728L172.974 216.297L168.512 219.866L164.497 224.774C163.308 224.327 160.661 223.435 159.59 223.435C158.519 223.435 152.898 216 150.222 212.282L139.961 209.159L129.254 211.39C125.537 212.58 117.12 215.673 113.194 218.528C109.268 221.383 108.287 229.235 108.287 232.804C106.948 239.495 103.558 256.359 100.703 270.277Z" fill="white"/>
<path d="M397.817 139.119C393.534 135.907 367.481 146.108 354.989 151.61C351.421 152.651 343.212 155.357 338.929 157.856C333.576 160.978 323.315 163.209 312.162 164.993C301.009 166.778 279.596 170.347 264.874 171.685C250.152 173.023 238.107 174.362 222.493 181.054C206.879 187.745 205.987 200.236 205.987 203.359C205.987 206.482 204.648 210.943 205.987 216.297C207.057 220.579 210.894 223.435 212.678 224.327C214.76 224.922 219.102 226.914 219.816 230.126C220.709 234.141 229.185 233.695 234.092 230.126C238.999 226.557 244.353 220.312 250.598 218.527C255.595 217.1 267.551 219.122 272.904 220.312H288.518C289.946 220.312 308.147 217.635 317.07 216.297C324.356 216.297 341.249 215.761 350.528 213.62C362.127 210.943 379.08 209.159 385.771 205.59C392.463 202.021 399.601 191.314 403.17 186.407C406.739 181.5 407.631 176.146 407.185 161.424C406.739 146.703 403.17 143.134 397.817 139.119Z" fill="white"/>
<path d="M109.528 221.017C109.619 222.732 110.325 224.357 111.516 225.595C112.707 226.834 114.303 227.602 116.014 227.761C117.249 227.584 118.384 226.986 119.228 226.067C120.072 225.148 120.571 223.965 120.642 222.72C120.642 219.451 117.596 217.059 113.673 217.18C110.783 217.249 109.493 218.453 109.528 221.017Z" fill="white"/>
<path d="M133.154 226.613C133.775 226.687 134.403 226.617 134.993 226.411C135.582 226.204 136.117 225.865 136.555 225.42C136.993 224.975 137.324 224.436 137.522 223.843C137.72 223.251 137.779 222.621 137.696 222.002C137.578 220.767 137.019 219.617 136.122 218.76C135.224 217.904 134.049 217.4 132.81 217.339C131.626 217.412 130.509 217.912 129.666 218.748C128.824 219.584 128.315 220.698 128.233 221.881C128.192 222.53 128.293 223.179 128.529 223.785C128.765 224.39 129.129 224.937 129.598 225.387C130.066 225.838 130.627 226.18 131.241 226.392C131.855 226.604 132.508 226.679 133.154 226.613Z" fill="white"/>
<path d="M202.557 176.614C198.927 169.027 193.198 163.727 184.75 161.972C173.894 159.701 163.434 162.712 152.973 164.863C147.037 166.102 141.308 168.304 135.407 169.921C132.978 170.462 130.496 170.727 128.008 170.713C117.916 170.947 107.973 173.193 98.7599 177.319C97.1254 178.059 96.1964 178.18 95.3189 176.149C92.2216 169.443 87.8374 163.41 82.4152 158.394C81.6986 157.897 80.9095 157.514 80.0756 157.258C80.0756 158.205 79.6799 159.357 80.0756 160.08C82.0714 163.693 84.2563 167.203 86.4241 170.713C88.1446 173.448 89.9511 176.098 91.5856 178.885C91.741 179.224 91.8095 179.597 91.7855 179.969C91.7615 180.341 91.6455 180.702 91.4478 181.018C76.944 192.786 66.2604 207.6 57.2278 223.772C50.9429 235.223 45.6471 247.19 41.3989 259.542C40.9172 260.901 40.367 261.916 38.7325 262.088C33.9151 262.604 31.4032 266.441 28.4096 269.537C28.0655 269.882 28.1679 270.656 28.0819 271.258C28.7142 271.433 29.3747 271.485 30.0267 271.413C32.5214 270.57 34.9811 269.572 37.9748 268.454L36.9599 272.497C35.6524 277.813 34.362 283.13 33.0544 288.446C33.0544 288.549 32.9684 288.669 33.0544 288.755L34.4481 292.196C35.1535 291.388 36.1689 290.699 36.513 289.753C38.2335 285.091 39.5238 280.325 41.1755 275.645C44.7369 265.598 48.4184 255.584 52.0487 245.571C55.8682 249.683 59.3432 253.503 62.8875 257.236C65.0969 259.664 67.7918 261.602 70.7968 262.923C73.8019 264.245 77.0506 264.922 80.3335 264.909C86.0202 264.843 91.6952 264.371 97.3149 263.499C99.9473 263.103 99.6888 263.998 99.4135 265.804C97.841 275.619 95.341 285.263 91.9468 294.605C89.8994 300.352 88.5058 306.339 86.3208 311.999C84.4643 316.045 82.3141 319.95 79.8866 323.681C79.3945 324.483 78.7005 325.142 77.8737 325.591C66.8668 331.892 53.9206 333.908 41.5191 331.251C31.609 329.135 24.6582 322.752 19.1527 314.546C13.8535 306.614 11.2728 297.616 9.68995 288.429C7.74496 277.615 6.40118 266.702 5.66427 255.739C5.06397 242.426 7.7963 229.173 13.6131 217.183C19.9102 203.643 25.4157 189.655 34.2591 177.491C39.3345 170.403 44.3412 163.263 49.3478 156.14C54.5723 149.122 61.2579 143.322 68.9436 139.142C79.6107 132.913 90.4153 126.978 102.459 123.76C104.708 123.053 107.129 123.113 109.341 123.932C121.752 128.668 133.539 134.903 144.439 142.496C146.246 143.735 148.086 145.507 150.633 144.217C151.303 143.817 151.946 143.374 152.56 142.892C152.138 142.246 151.621 141.666 151.028 141.172C143.716 136.647 136.559 131.778 128.937 127.838C121.797 124.122 114.159 121.352 106.692 118.289C104.936 117.673 103.118 117.247 101.272 117.016C99.7577 116.758 98.2612 116.758 98.5364 119.098C98.5364 119.442 98.003 120.061 97.5729 120.216C95.3534 121.059 93.0649 121.765 90.8455 122.608C89.211 123.227 88.0927 122.814 87.9035 121.076C87.4324 117.933 87.2254 114.757 87.2843 111.579C87.8521 101.652 89.8821 92.0515 95.749 83.7244C101.804 75.1906 110.451 68.8374 120.404 65.6077C123.466 64.5582 126.615 63.6979 129.746 62.9237C129.675 61.6392 129.856 60.3534 130.28 59.1387L128.903 59.3451C111.543 61.857 98.1408 70.4938 89.1082 85.6513C85.2027 92.2064 83.7228 99.5357 82.8453 106.968C82.1399 112.818 81.4345 118.719 83.241 124.552C83.3959 125.051 82.4153 126.272 81.6927 126.634C75.2753 130.436 68.7375 134.015 62.3716 137.886C55.4564 142.163 49.509 147.835 44.9088 154.54C39.1968 162.695 33.3643 170.781 27.7039 179.005C20.0133 190.309 15.0234 202.972 9.22539 215.256C1.89609 230.74 -0.202779 247.188 1.19082 264.066C2.34355 278.002 4.40841 291.818 9.20858 305.083C13.4754 316.868 20.4778 326.452 31.575 332.749C38.9043 336.895 46.9044 337.497 55.0595 337.187C62.8534 336.878 69.9936 334.28 77.168 331.389C80.7832 329.982 83.7905 327.352 85.6672 323.957C90.6423 316.05 94.14 307.306 95.9901 298.149C96.2526 296.932 96.6212 295.741 97.0915 294.588C101.307 283.818 103.13 272.462 105.229 261.193C107.38 249.597 109.909 238.053 111.526 226.388C112.18 221.759 113.97 219.66 118.168 218.404C121.213 217.361 124.128 215.969 126.856 214.258C128.843 213.13 131.038 212.414 133.308 212.154C135.579 211.893 137.878 212.094 140.069 212.744C141.023 213.156 142.061 213.333 143.097 213.26C147.467 211.987 149.756 214.637 152.113 217.527C154.212 220.108 156.5 222.534 158.788 224.925C159.724 225.897 160.789 226.737 161.954 227.42C162.566 227.875 163.279 228.176 164.032 228.299C164.785 228.421 165.556 228.361 166.281 228.123C167.006 227.885 167.664 227.477 168.198 226.933C168.732 226.388 169.128 225.723 169.352 224.994C169.899 223.991 170.221 222.882 170.298 221.742C170.298 219.575 170.763 219.058 173.086 219.316C175.924 219.643 179.967 215.875 180.724 212.434C181.223 210.335 182.032 209.423 184.389 209.561C187.83 209.75 189.241 208.236 189.035 204.916C188.937 202.856 188.537 200.821 187.847 198.877C184.768 190.636 181.292 182.653 172.621 178.351C175.979 177.525 179.507 177.716 182.755 178.902C185.215 179.986 187.675 181.087 190.084 182.343C191.601 183.151 193.279 183.61 194.997 183.688C196.714 183.765 198.427 183.459 200.011 182.79C202.781 181.466 203.848 179.332 202.557 176.614ZM178.075 189.552C182.101 193.44 183.546 198.705 185.077 203.866C185.576 205.587 184.475 206.206 183.254 205.587C181.548 204.956 180.019 203.923 178.797 202.576C175.718 198.688 173.154 194.387 170.023 190.533C168.398 188.43 166.351 186.692 164.013 185.429C161.674 184.167 159.098 183.408 156.448 183.203C154.91 183.388 153.413 183.836 152.026 184.528C153.334 185.337 154.573 186.661 155.966 186.851C158.39 187.197 160.718 188.035 162.807 189.313C164.896 190.591 166.701 192.282 168.113 194.283C170.797 197.827 173.12 201.647 175.632 205.329C176.449 206.279 176.916 207.481 176.953 208.733C176.991 209.986 176.597 211.214 175.838 212.211C173.55 215.652 172.07 215.652 170.16 212.073C169.765 211.351 169.524 210.542 169.197 209.785C164.448 198.688 155.794 192.787 144.095 191.014C143.28 190.869 142.439 190.996 141.703 191.376C141.521 191.642 141.396 191.942 141.334 192.259C141.272 192.575 141.274 192.901 141.342 193.216C142.756 194.07 144.294 194.697 145.901 195.075C151.544 195.952 155.347 199.341 158.478 203.78C159.093 204.742 159.808 205.636 160.612 206.447C164.827 210.249 165.774 215.308 165.946 220.572C165.771 221.561 165.409 222.507 164.879 223.36C164.034 223.1 163.225 222.736 162.47 222.276C161.477 221.363 160.551 220.379 159.7 219.334C157.153 216.46 154.727 213.467 151.992 210.731C150.808 209.641 149.319 208.939 147.725 208.718C143.097 208.15 138.452 207.789 133.79 207.6C131.853 207.493 129.914 207.786 128.095 208.46C122.933 210.559 117.927 213.123 112.714 215.136C111.732 215.414 110.848 215.96 110.161 216.714C109.474 217.468 109.011 218.4 108.825 219.402C107.001 227.781 105.057 236.126 103.268 244.522C102.889 246.242 102.407 247.636 100.308 247.687C97.521 247.687 94.7172 248.031 91.93 247.928C79.4564 247.481 69.8045 241.046 60.9611 232.994C59.4471 231.618 59.4294 230.276 60.4789 228.349C66.7965 216.775 74.3481 205.919 83.0007 195.969C90.7745 186.507 101.55 179.987 113.539 177.491C121.779 175.829 130.151 174.919 138.555 174.773C144.129 175.237 149.773 175.22 155.244 176.235C164.345 177.99 171.589 183.272 178.075 189.552ZM196.089 179.022C194.563 178.985 193.069 178.578 191.735 177.835C185.524 173.913 178.797 171.969 171.623 173.569C168.116 174.275 164.481 173.989 161.128 172.743C156.375 171.573 151.555 170.699 146.693 170.128C149.842 169.388 152.8 168.562 155.794 168.011C164.121 166.532 172.397 164.57 181 165.809C184.355 166.2 187.577 167.346 190.426 169.161C193.274 170.976 195.675 173.412 197.448 176.287C198.601 178.042 198.153 179.091 196.089 179.091V179.022ZM411.013 165.413C410.826 161.106 410.424 156.811 409.808 152.544C408.616 146.499 405.776 140.902 401.601 136.372C394.513 128.165 387.27 119.975 376.998 115.726C369.638 112.687 362.043 110.253 354.288 108.448C343.431 105.97 332.42 104.129 321.391 102.529C314.205 101.585 306.976 101.01 299.731 100.809C284.814 100.224 269.88 99.8798 254.998 99.4497C254.293 99.4497 246.963 98.6583 246.568 100.103C246.31 101.101 247.308 102.615 248.718 106.332C249.701 109.643 250.426 113.025 250.886 116.448C251.895 123.685 250.939 131.06 248.116 137.799C244.916 145.008 239.187 149 232.236 151.77C229.277 152.957 226.283 154.093 223.376 155.417C222.687 155.744 222.292 156.708 221.758 157.379C222.477 157.868 223.244 158.283 224.047 158.617C224.827 158.911 225.676 158.971 226.49 158.789C234.421 156.243 242.404 153.628 247.875 146.746C254.877 138.006 256.994 127.821 255.755 116.895C254.978 112.405 253.915 107.968 252.572 103.613C255.583 103.94 258.731 104.422 261.88 104.594C267.472 104.904 273.081 105.093 278.672 105.23C288.324 105.489 297.976 105.403 307.593 105.953C314.086 106.42 320.548 107.247 326.949 108.431C336.928 110.151 346.907 111.872 356.799 114.022C364.8 115.743 372.766 117.928 379.596 122.625C389.127 129.3 397.404 137.283 402.944 147.658C406.385 154.23 405.851 161.542 405.593 168.682C405.369 175.065 404.32 181.414 400.432 186.627C391.261 199.118 380.043 208.804 363.785 210.404C357.195 211.058 350.554 211.144 343.965 211.626C338.511 212.039 333.074 212.641 327.638 213.14C326.829 213.14 326.003 213.14 325.142 213.243C329.771 196.64 322.459 176.373 311.155 168.08C314.596 167.271 317.71 165.964 320.893 165.861C328.033 165.637 333.952 162.299 340.146 159.409C344.55 157.362 349.127 155.693 353.548 153.697C355.213 152.928 356.76 151.926 358.142 150.72C359.157 149.843 358.968 148.759 357.35 148.725C356.126 148.608 354.89 148.743 353.72 149.12C345.909 152.458 338.235 156.002 330.373 159.323C328.41 160.265 326.343 160.969 324.213 161.422C313.202 163.314 302.157 165.069 291.111 166.807C286.759 167.495 282.354 167.994 277.983 168.527C274.973 168.923 273.545 167.547 274.25 164.312C275.42 159.151 276.866 153.869 278.328 148.707C279.79 143.546 281.322 138.797 282.801 133.842C282.911 133.552 282.946 133.238 282.905 132.931C282.647 131.812 282.337 130.711 282.061 129.61C281.253 130.384 280.031 131.021 279.722 131.967C276.281 142.29 272.839 152.613 269.519 162.936C269.159 163.801 269.064 164.752 269.244 165.671C270.294 168.579 269.244 169.456 266.353 169.525C260.9 169.515 255.45 169.791 250.025 170.351C244.723 171.077 239.488 172.227 234.37 173.792C226.958 176.052 219.999 179.592 213.809 184.253C209.181 187.694 205.534 191.823 204.432 197.69C204.046 198.797 203.992 199.993 204.278 201.131C206.497 205.673 204.02 209.957 203.831 214.361C203.71 217.338 203.693 220.744 206.549 222.104C208.818 223.185 210.72 224.907 212.02 227.059C212.846 228.315 215.289 228.504 217.439 229.33C217.288 230.512 217.494 231.712 218.031 232.776C218.567 233.84 219.41 234.719 220.45 235.3C221.864 236.101 223.475 236.489 225.099 236.422C226.722 236.355 228.295 235.835 229.638 234.921C232.483 233.209 235.155 231.227 237.621 229.003C240.809 226.019 244.636 223.8 248.809 222.515C252.983 221.23 257.393 220.913 261.708 221.587C267.884 222.327 274.095 222.757 280.306 223.17C282.064 223.162 283.819 223.019 285.554 222.74L309.314 220.555C314.871 220.022 320.411 219.351 325.968 218.835C334.571 218.129 343.259 217.544 351.913 216.925C360.568 216.306 369.806 215.755 378.082 212.142C390.531 206.846 400.834 197.513 407.33 185.646C410.467 179.393 411.745 172.371 411.013 165.413ZM309.4 214.809C306.991 215.17 304.6 215.703 302.174 215.858C295.928 216.237 289.632 216.133 283.558 218.129C282.841 218.25 282.108 218.25 281.39 218.129C273.631 217.665 265.906 217.51 258.147 216.65C251.592 215.896 244.997 217.668 239.703 221.605C236.657 223.755 233.922 226.353 230.86 228.487C228.987 229.715 226.932 230.639 224.769 231.222C222.945 231.738 222.188 230.74 222.67 228.71C223.804 223.389 226.869 218.676 231.272 215.48C237.818 210.703 245.183 207.164 253.002 205.036C253.845 204.813 255.016 203.866 255.084 203.178C255.257 201.458 253.949 201.234 252.4 201.286C246.699 201.786 241.18 203.549 236.245 206.447C229.036 210.232 222.309 214.74 219.212 222.912C218.988 223.497 217.819 224.323 217.595 224.203C216.555 223.676 215.675 222.88 215.049 221.897C214.928 221.451 214.911 220.983 215.001 220.529C215.09 220.076 215.283 219.649 215.564 219.282C218.038 215.874 220.857 212.732 223.978 209.905C231.186 204.281 239.287 199.907 247.944 196.967C248.494 196.778 248.908 196.159 249.39 195.746C248.822 195.298 248.288 194.49 247.669 194.455C246.137 194.269 244.583 194.41 243.109 194.868C237.097 197.086 231.226 199.666 225.526 202.593C219.728 205.811 214.36 209.854 211.212 216.065C210.754 216.777 210.223 217.44 209.628 218.043C209.157 217.181 208.837 216.244 208.682 215.273C208.704 211.302 209.973 207.437 212.312 204.228C218.076 196.83 225.973 192.631 234.575 189.552C236.709 188.795 238.929 188.262 241.045 187.47C241.561 187.281 241.836 186.455 242.214 185.939C241.75 185.646 241.303 185.13 240.822 185.096C239.788 185.012 238.747 185.059 237.724 185.233C226.369 187.091 216.304 191.479 207.994 200.718C208.005 197.517 209.235 194.44 211.435 192.115C214.985 188.336 219.202 185.245 223.875 182.997C234.829 177.045 247.09 173.906 259.557 173.861C266.8 173.723 274.009 172.88 281.235 172.14C284.676 171.848 287.98 171.143 291.369 170.816C292.524 170.61 293.712 170.856 294.689 171.504C296.943 173.913 298.836 176.666 300.918 179.195C306.137 185.416 309.837 192.767 311.723 200.666C312.996 205.948 310.346 210.163 309.4 214.809Z" fill="#2E2E2E"/>
<path d="M144.143 63.1515C135.386 62.8935 128.108 63.1515 128.108 63.1515C128.108 63.1515 119.076 61.4311 126.594 59.5385C129.709 58.7815 136.608 58.9192 143.627 59.3493C143.765 60.6741 143.937 61.93 144.143 63.1515Z" fill="#2E2E2E"/>
<path d="M263.275 304.272C265.255 303.023 266.951 301.373 268.252 299.427C269.553 297.481 270.43 295.284 270.827 292.977C271.225 290.671 271.133 288.306 270.558 286.037C269.984 283.768 268.938 281.645 267.491 279.806C265.65 277.526 263.319 275.691 260.671 274.437C258.022 273.182 255.125 272.542 252.195 272.563H221.536C211.093 272.563 202.611 280.443 202.611 290.112C202.644 292.934 203.373 295.703 204.736 298.174C206.099 300.644 208.052 302.739 210.421 304.272C208.437 305.509 206.737 307.151 205.429 309.089C204.122 311.028 203.238 313.22 202.833 315.523C202.429 317.826 202.515 320.188 203.084 322.456C203.653 324.724 204.694 326.846 206.137 328.685C207.342 330.228 208.788 331.564 210.421 332.643C208.436 333.886 206.736 335.534 205.43 337.478C204.124 339.423 203.242 341.62 202.841 343.928C202.44 346.235 202.53 348.602 203.104 350.872C203.678 353.143 204.723 355.268 206.172 357.108C209.304 360.925 213.743 363.443 218.626 364.171C223.51 364.899 228.489 363.786 232.598 361.048C234.975 359.508 236.934 357.405 238.303 354.926C239.671 352.447 240.407 349.668 240.444 346.837V332.213C244.363 335.219 249.256 336.668 254.18 336.28C259.104 335.893 263.711 333.696 267.112 330.114C268.706 328.401 269.92 326.372 270.677 324.158C271.433 321.944 271.715 319.595 271.502 317.265C271.289 314.935 270.588 312.677 269.443 310.636C268.298 308.596 266.735 306.82 264.858 305.425C264.376 304.994 263.826 304.685 263.275 304.272ZM263.912 290.095C263.778 293.08 262.472 295.891 260.279 297.92C258.086 299.949 255.181 301.032 252.195 300.934H240.478V279.239H252.195C255.183 279.145 258.087 280.232 260.28 282.263C262.473 284.295 263.778 287.109 263.912 290.095ZM209.82 290.095C209.954 287.109 211.258 284.295 213.45 282.263C215.643 280.232 218.548 279.145 221.536 279.239H233.252V300.934H221.536C218.55 301.032 215.645 299.949 213.452 297.92C211.259 295.891 209.954 293.08 209.82 290.095ZM209.82 318.466C209.954 315.48 211.258 312.666 213.45 310.634C215.643 308.603 218.548 307.516 221.536 307.609H233.252V329.305H221.536C218.547 329.403 215.64 328.318 213.446 326.285C211.253 324.252 209.949 321.436 209.82 318.449V318.466ZM221.536 357.676C220.049 357.779 218.555 357.574 217.15 357.075C215.745 356.577 214.458 355.795 213.368 354.777C212.278 353.76 211.408 352.529 210.814 351.162C210.22 349.794 209.914 348.319 209.914 346.828C209.914 345.337 210.22 343.862 210.814 342.495C211.408 341.127 212.278 339.896 213.368 338.879C214.458 337.862 215.745 337.079 217.15 336.581C218.555 336.082 220.049 335.878 221.536 335.98H233.252V346.837C233.127 349.825 231.825 352.642 229.63 354.672C227.434 356.703 224.525 357.783 221.536 357.676ZM252.195 329.305C250.708 329.408 249.215 329.203 247.81 328.705C246.405 328.206 245.117 327.424 244.027 326.406C242.937 325.389 242.068 324.158 241.474 322.791C240.88 321.423 240.573 319.948 240.573 318.457C240.573 316.966 240.88 315.491 241.474 314.124C242.068 312.756 242.937 311.525 244.027 310.508C245.117 309.491 246.405 308.709 247.81 308.21C249.215 307.711 250.708 307.507 252.195 307.609C253.683 307.507 255.175 307.711 256.58 308.21C257.985 308.709 259.273 309.491 260.363 310.508C261.453 311.525 262.322 312.756 262.916 314.124C263.51 315.491 263.817 316.966 263.817 318.457C263.817 319.948 263.51 321.423 262.916 322.791C262.322 324.158 261.453 325.389 260.363 326.406C259.273 327.424 257.985 328.206 256.58 328.705C255.175 329.203 253.683 329.408 252.195 329.305Z" fill="#786FF4"/>
<path d="M286.914 22.9398C281.615 26.3808 277.519 31.5423 272.564 35.4995C270.362 37.22 272.375 39.7663 274.285 38.0974C279.496 34.22 284.041 29.5186 287.739 24.1785C288.101 23.5419 287.877 22.3032 286.914 22.9398Z" fill="#786FF4"/>
<path d="M311.595 40.924C306.332 41.0434 301.317 42.8947 296.609 45.1281C291.583 47.5168 286.509 49.7861 281.494 52.1628C280.923 52.3881 280.419 52.7596 280.032 53.2411C279.646 53.7227 279.389 54.2977 279.288 54.9097C279.182 55.8294 279.583 57.0955 280.774 56.9044C286.096 56.0683 291.087 53.5005 295.948 51.2432C301.293 48.7589 306.403 45.8805 311.524 42.8827C312.137 42.5961 312.81 40.9001 311.595 40.924Z" fill="#786FF4"/>
<path d="M302.95 70.0296C296.013 66.9133 288.241 66.1755 280.841 67.9306C280.033 68.1371 279.034 69.9436 280.204 70.3049C287.221 72.5311 294.655 73.1197 301.935 72.0254C302.52 71.9738 303.948 70.5285 302.95 70.0296Z" fill="#786FF4"/>
<path d="M162.868 119.512C171.742 127.929 182.53 134.064 194.301 137.388C199.27 138.118 204.281 138.526 209.303 138.609C216.098 138.213 222.865 137.432 229.571 136.269C239.636 134.067 247.378 128.424 249.27 117.619C250.432 110.609 249.442 103.411 246.431 96.9734C244.419 92.5518 245.003 82.3665 245.003 82.3665C248.282 80.6185 251.443 78.6587 254.466 76.4995C264.032 66.9852 260.006 50.2966 249.597 44.7738C248.595 44.3645 247.722 43.6933 247.068 42.8307C246.414 41.968 246.004 40.9456 245.881 39.8702C243.438 21.4265 231.188 7.42179 213.519 3.15497C203.6 0.561346 193.333 -0.443242 183.1 0.178555C179.006 0.71451 174.973 1.64207 171.057 2.94852C169.113 3.49908 167.616 4.06692 165.741 2.38084C164.364 1.12488 162.626 0.987237 162.059 3.6712C161.938 4.29058 160.854 4.66892 160.338 5.21948C159.822 5.77004 158.015 7.07771 158.187 7.47342C159.151 9.76168 157.534 10.7939 156.467 12.1187C148.914 21.0136 146.385 31.7151 145.507 42.9327C145.112 48.0942 145.129 48.4728 140.346 48.4384L139.607 51.3804C140.708 51.2256 141.43 51.518 141 53.7375C138.867 64.3357 140.105 74.0909 148.879 81.6955C149.623 82.4613 150.12 83.432 150.307 84.4827C151.529 90.6764 152.613 96.853 153.748 102.943C156.295 113.318 159.943 116.656 162.868 119.512ZM238.139 78.4782C227.352 78.4782 221.829 73.0414 222.448 62.9937C222.574 61.4268 222.856 59.8762 223.291 58.3655C225.407 50.0039 232.049 44.8081 239.894 45.5824C242.11 46.0492 244.259 46.7889 246.294 47.7846C252.608 50.2449 257.047 58.8644 255.413 65.4539C253.383 74.1424 247.43 78.5126 238.139 78.4782ZM221.949 92.6722C228.538 86.8569 228.539 86.8569 224.633 79.2867C226.354 80.0954 227.593 80.7319 228.849 81.1965C230.105 81.661 231.653 82.0052 233.046 82.3493C237.021 83.2955 237.537 83.9665 236.849 87.9581C236.58 89.6368 236.093 91.2734 235.403 92.827C235.183 93.1848 234.878 93.4822 234.515 93.6925C234.151 93.9027 233.741 94.0193 233.321 94.0315C229.536 93.7046 225.751 93.1539 221.949 92.6722ZM206.465 99.5542C207.095 99.2865 207.762 99.1125 208.443 99.0379C214.172 99.2788 219.884 99.5025 225.648 99.881C226.543 99.8492 227.434 100.008 228.263 100.346C227.764 100.965 224.065 108.828 219.661 108.828C215.256 108.828 206.929 100.156 206.499 99.537L206.465 99.5542ZM165.844 52.533C169.487 48.2468 172.047 43.1492 173.311 37.6681C174.309 33.4185 175.341 29.1688 176.149 24.8676C176.459 23.2847 176.804 22.9923 178.49 23.388C186.163 25.1085 193.853 27.0355 201.63 28.1882C211.305 29.7404 221.216 28.7806 230.414 25.401C235.747 23.4225 235.695 23.302 237.588 28.6356C237.943 29.5376 238.214 30.4706 238.397 31.4227C238.965 34.4508 239.446 37.496 240.014 40.8338C228.332 41.8317 221.587 47.0964 219.093 57.8839C218.336 61.3249 217.527 62.8044 213.931 61.6517C213.355 61.5109 212.748 61.5716 212.211 61.8237C210.301 62.6667 209.424 61.8238 209.2 60.0001C208.563 55.0107 205.398 51.6728 201.802 48.6791C191.187 39.8702 169.112 40.8853 166.687 60.7226C165.121 73.7983 174.636 86.2375 187.849 86.5299C197.656 86.788 210.422 81.0416 210.697 68.2928C210.697 65.0927 213.381 66.2109 215.118 66.1077C216.856 66.0045 217.355 67.1057 217.08 68.9638C216.409 73.4199 218.422 77.2566 220.401 81.0072C221.192 82.5213 222.878 84.001 222.758 85.3946C222.638 86.7882 220.676 87.7172 219.54 88.8355C219.108 89.2643 218.753 89.7649 218.491 90.3151C217.287 92.7755 215.36 93.1712 212.831 92.7411C206.048 91.619 199.084 92.6162 192.89 95.597C189.586 97.1282 186.008 97.9885 182.567 99.3305C181.806 99.685 180.949 99.7743 180.132 99.584C179.315 99.3937 178.585 98.9349 178.06 98.281C175.879 96.1387 173.499 94.2089 170.953 92.5174C169.981 91.9298 169.162 91.1196 168.563 90.1534C167.965 89.1873 167.605 88.0927 167.512 86.9601C166.308 77.3081 165.173 67.6218 163.866 58.0043C163.769 56.9971 163.899 55.9811 164.248 55.0312C164.596 54.0813 165.154 53.2219 165.878 52.516L165.844 52.533ZM201.527 77.876C194.954 82.5214 187.849 83.7944 180.485 80.319C173.603 77.0156 171.28 70.6843 170.988 64.2841C171.143 58.0903 172.262 53.1869 177.131 50.1073C180.545 48.1568 184.492 47.3434 188.399 47.7846C192.727 47.9269 196.837 49.712 199.896 52.7768C202.954 55.8417 204.731 59.9563 204.864 64.2841C204.934 65.5035 205.089 66.7165 205.329 67.9143C205.777 69.7585 205.657 71.6951 204.984 73.4698C204.312 75.2445 203.118 76.7744 201.561 77.8588L201.527 77.876ZM149.327 75.8113C145.146 71.8026 142.153 60.327 145.663 53.5655C147.022 51.0191 148.845 49.1953 151.977 49.591C153.402 49.7174 154.739 50.3331 155.761 51.3336C156.784 52.334 157.428 53.6577 157.585 55.0795C158.17 58.6237 158.222 62.3054 158.566 66.5551C155.796 63.8711 153.559 61.6689 151.271 59.5527C150.537 59.0348 149.746 58.6019 148.914 58.2624C148.659 59.2095 148.594 60.1977 148.725 61.1699C150.166 64.6992 152.871 67.5643 156.312 69.2047C156.966 69.5316 158.033 70.0821 158.033 70.5123C158.066 73.1724 157.881 75.8307 157.482 78.4609C157.482 78.9771 155.676 79.8374 155.177 79.5793C153.065 78.6343 151.106 77.3819 149.362 75.863L149.327 75.8113Z" fill="#2E2E2E"/>
<path d="M187.123 63.4923C187.45 63.9224 188.104 65.4191 189.205 65.9008C189.807 66.1761 191.183 64.7482 192.163 64.0428C192.335 63.9224 192.318 63.5439 192.49 63.4062C194.383 61.875 193.282 60.0684 192.835 58.4167C192.749 58.1415 191.338 57.9522 190.684 58.1758C189.509 58.4128 188.476 59.1046 187.808 60.1005C187.141 61.0963 186.895 62.3156 187.123 63.4923Z" fill="#2E2E2E"/>
<path d="M235.693 59.8772C235.108 59.3266 234.144 57.9502 233.714 58.1567C232.276 58.5574 231 59.4001 230.067 60.5654C229.749 61.1554 229.565 61.8086 229.529 62.4778C229.494 63.1471 229.607 63.816 229.86 64.4365C230.858 66.5527 232.768 66.4667 233.938 64.4365C234.637 62.963 235.224 61.4389 235.693 59.8772Z" fill="#2E2E2E"/>
<path d="M130.796 90.3168C147.107 103.857 164.896 119.565 180.811 133.673C185.525 138.198 192.993 143.6 196.554 149.158L194.024 148.882C199.788 145.441 208.15 140.899 214.086 137.648C220.796 133.966 227.505 130.267 234.249 126.619C234.576 126.458 234.952 126.428 235.3 126.534C235.648 126.641 235.943 126.877 236.123 127.193C236.303 127.509 236.356 127.883 236.27 128.237C236.184 128.59 235.966 128.898 235.661 129.097C229.123 133.088 222.55 137.011 215.978 140.968C209.732 144.633 201.492 149.708 195.229 153.149C191.384 151.243 187.893 148.695 184.906 145.613C177.061 138.353 168.476 130.318 160.819 122.989L144.87 107.728C139.588 102.567 134.134 97.6633 129.076 92.2438C128.837 91.9985 128.702 91.6714 128.696 91.3294C128.691 90.9873 128.817 90.656 129.047 90.4034C129.278 90.1507 129.596 89.9958 129.937 89.9701C130.278 89.9444 130.616 90.0499 130.882 90.2652L130.796 90.3168Z" fill="#2E2E2E"/>
</svg>
