<svg width="192" height="32" viewBox="0 0 192 32" fill="none" xmlns="http://www.w3.org/2000/svg">
<g clip-path="url(#clip0_701_7483)">
<path d="M69.4334 9.30664V17.5466C69.4334 19.24 68.9467 20.5533 67.9734 21.4933C67 22.4333 65.62 22.9066 63.8334 22.9066C62.52 22.9066 61.4667 22.6733 60.6667 22.2066C59.8667 21.74 59.32 21.0933 59.02 20.26C58.72 19.4266 58.66 18.48 58.84 17.4066L62.2467 16.8C62.0867 18.0333 62.14 18.9 62.42 19.4066C62.6934 19.9133 63.2067 20.1666 63.9534 20.1666C64.7 20.1666 65.2 19.92 65.4934 19.4333C65.7934 18.9466 65.94 18.1933 65.94 17.18V9.30664H69.4267H69.4334Z" fill="white"/>
<path d="M83.8601 9.30664V17.24C83.8601 19.1333 83.3534 20.5533 82.3467 21.4933C81.34 22.4333 79.8467 22.9066 77.8734 22.9066C75.9 22.9066 74.4267 22.4333 73.4067 21.4933C72.3934 20.5533 71.8867 19.1333 71.8867 17.24V9.30664H75.3934V17.3C75.3934 18.26 75.6 18.98 76.0134 19.4533C76.4267 19.9266 77.0467 20.1666 77.8667 20.1666C78.6867 20.1666 79.3334 19.9333 79.7467 19.4533C80.1601 18.98 80.3667 18.26 80.3667 17.3V9.30664H83.8534H83.8601Z" fill="white"/>
<path d="M90.0534 20H96.7667V22.7H86.5601V9.30664H90.0467V20H90.0534Z" fill="white"/>
<path d="M102.267 9.30664V22.7H98.78V9.30664H102.267Z" fill="white"/>
<path d="M111.233 9.09998C112.587 9.09998 113.753 9.37331 114.733 9.91998C115.713 10.4666 116.467 11.2533 116.993 12.2866C117.52 13.3133 117.787 14.5533 117.787 16C117.787 17.4466 117.52 18.6866 116.993 19.7133C116.467 20.74 115.713 21.5266 114.733 22.08C113.753 22.6333 112.587 22.9 111.233 22.9C109.88 22.9 108.713 22.6266 107.72 22.08C106.727 21.5333 105.973 20.7466 105.447 19.7133C104.92 18.68 104.653 17.4466 104.653 16C104.653 14.5533 104.92 13.3133 105.447 12.2866C105.973 11.26 106.733 10.4733 107.72 9.91998C108.707 9.36664 109.88 9.09998 111.233 9.09998ZM111.233 11.84C110.587 11.84 110.033 11.9933 109.587 12.3066C109.14 12.62 108.8 13.08 108.573 13.6933C108.34 14.3066 108.227 15.08 108.227 15.9933C108.227 16.9066 108.34 17.6666 108.573 18.2866C108.8 18.9066 109.14 19.3733 109.587 19.6866C110.033 20 110.58 20.1533 111.233 20.1533C111.887 20.1533 112.427 20 112.867 19.6866C113.307 19.3733 113.64 18.9066 113.873 18.2866C114.107 17.6666 114.22 16.9 114.22 15.9933C114.22 15.0866 114.107 14.3066 113.873 13.6933C113.647 13.08 113.307 12.6133 112.867 12.3066C112.427 11.9933 111.88 11.84 111.233 11.84Z" fill="white"/>
<path d="M125.72 22.9C124.527 22.9 123.473 22.6333 122.547 22.1066C121.62 21.58 120.9 20.8 120.387 19.7733C119.873 18.7466 119.613 17.4933 119.613 16.02C119.613 14.5466 119.88 13.3333 120.427 12.3066C120.967 11.28 121.74 10.4866 122.753 9.93331C123.76 9.37998 124.947 9.09998 126.313 9.09998C127.827 9.09998 129.053 9.37331 129.987 9.91998C130.92 10.4666 131.647 11.34 132.16 12.5266L128.933 13.8066C128.76 13.12 128.447 12.6133 128 12.3066C127.553 11.9933 127 11.84 126.333 11.84C125.667 11.84 125.1 12 124.627 12.32C124.153 12.64 123.793 13.1066 123.553 13.72C123.307 14.3333 123.187 15.1 123.187 16C123.187 16.9 123.313 17.74 123.56 18.3733C123.807 19.0066 124.18 19.48 124.673 19.7866C125.167 20.0933 125.78 20.24 126.507 20.24C126.9 20.24 127.26 20.1933 127.58 20.1C127.907 20.0066 128.187 19.8666 128.433 19.6866C128.68 19.5066 128.867 19.2733 129 19C129.133 18.72 129.2 18.3933 129.2 18.0133V17.8133H126.133V15.48H132.16V22.7066H129.787L129.52 19.56L130.087 20.0466C129.8 20.9666 129.293 21.6733 128.553 22.1666C127.813 22.66 126.867 22.9066 125.7 22.9066L125.72 22.9Z" fill="white"/>
<path d="M140.86 9.09998C142.213 9.09998 143.38 9.37331 144.36 9.91998C145.34 10.4666 146.093 11.2533 146.62 12.2866C147.147 13.3133 147.413 14.5533 147.413 16C147.413 17.4466 147.147 18.6866 146.62 19.7133C146.093 20.74 145.34 21.5266 144.36 22.08C143.38 22.6333 142.213 22.9 140.86 22.9C139.507 22.9 138.34 22.6266 137.347 22.08C136.353 21.5333 135.6 20.7466 135.073 19.7133C134.547 18.68 134.28 17.4466 134.28 16C134.28 14.5533 134.547 13.3133 135.073 12.2866C135.6 11.26 136.36 10.4733 137.347 9.91998C138.333 9.36664 139.507 9.09998 140.86 9.09998ZM140.86 11.84C140.213 11.84 139.66 11.9933 139.213 12.3066C138.767 12.62 138.427 13.08 138.2 13.6933C137.967 14.3066 137.853 15.08 137.853 15.9933C137.853 16.9066 137.967 17.6666 138.2 18.2866C138.427 18.9066 138.767 19.3733 139.213 19.6866C139.66 20 140.207 20.1533 140.86 20.1533C141.513 20.1533 142.053 20 142.493 19.6866C142.933 19.3733 143.267 18.9066 143.5 18.2866C143.733 17.6666 143.847 16.9 143.847 15.9933C143.847 15.0866 143.733 14.3066 143.5 13.6933C143.273 13.08 142.933 12.6133 142.493 12.3066C142.053 11.9933 141.507 11.84 140.86 11.84Z" fill="white"/>
<path d="M165.307 9.30664V22.7H162.22V16.5533L162.32 12.4333H162.28L158.973 22.7H156.153L152.847 12.4333H152.807L152.907 16.5533V22.7H149.8V9.30664H154.773L156.887 16.1266L157.64 18.9666H157.68L158.453 16.1466L160.547 9.30664H165.313H165.307Z" fill="white"/>
<path d="M168.273 22.6933V9.30664H178.7V12.0066H171.76V14.7266H177.28V17.26H171.76V20H178.967V22.7H168.273V22.6933Z" fill="white"/>
<path d="M183.08 21.2333L182.473 20.0533H191.827V22.6933H180.34V20.1799L188.88 10.7666L189.487 11.9399H180.48V9.29993H191.58V11.8133L183.08 21.2266V21.2333Z" fill="white"/>
<path d="M20.6001 31.9999C19.0668 32.0133 17.9335 30.5399 18.4135 29.0533C19.4468 25.8466 20.5268 22.6599 21.5935 19.4666C23.5535 13.5666 25.5201 7.66661 27.4868 1.76661C27.8601 0.61328 28.7068 -0.0267199 29.7868 -5.32614e-05C30.8001 0.0266134 31.7201 0.719947 31.9135 1.73995C32.0001 2.19995 31.9668 2.73995 31.8201 3.18661C28.8335 12.2133 25.8201 21.2333 22.8135 30.2533C22.4468 31.3533 21.6201 31.9866 20.5935 31.9933L20.6001 31.9999Z" fill="white"/>
<path d="M44.9 15.9932C44.4467 15.5932 44.0867 15.3132 43.7667 14.9932C41.6201 12.8599 39.4801 10.7199 37.3467 8.57325C36.6734 7.89325 36.4267 7.08658 36.7334 6.16658C37.02 5.29325 37.6534 4.77991 38.5534 4.63325C39.3001 4.50658 39.9601 4.73325 40.4867 5.25991C43.5334 8.29325 46.5801 11.3332 49.6067 14.3866C50.5467 15.3332 50.5467 16.6666 49.6067 17.6132C46.5667 20.6799 43.5134 23.7399 40.4401 26.7799C39.5067 27.6999 38.0934 27.6732 37.2067 26.7799C36.3067 25.8732 36.3201 24.4599 37.2667 23.5066C39.5867 21.1666 41.92 18.8466 44.2534 16.5199C44.4 16.3732 44.5734 16.2532 44.8934 15.9999L44.9 15.9932Z" fill="white"/>
<path d="M5.40679 15.8866C7.46012 17.9333 9.32012 19.7866 11.1735 21.64C11.7668 22.2333 12.3668 22.82 12.9468 23.42C13.9201 24.42 13.9468 25.82 13.0201 26.74C12.0868 27.66 10.7001 27.6266 9.70012 26.6333C6.72012 23.6666 3.74679 20.6933 0.780119 17.7133C-0.266548 16.66 -0.259881 15.3333 0.793452 14.2733C3.76012 11.2933 6.73345 8.31996 9.71345 5.35329C10.7268 4.33996 12.1335 4.30662 13.0668 5.25996C13.9801 6.19329 13.9468 7.57329 12.9535 8.57329C10.6735 10.8666 8.38679 13.1533 6.08679 15.4333C5.91345 15.6066 5.67345 15.7066 5.40012 15.8866H5.40679Z" fill="white"/>
</g>
<defs>
<clipPath id="clip0_701_7483">
<rect width="191.827" height="32" fill="white"/>
</clipPath>
</defs>
</svg>
