<svg width="120" height="24" viewBox="0 0 120 24" fill="none" xmlns="http://www.w3.org/2000/svg">
<mask id="mask0_1012_7835" style="mask-type:alpha" maskUnits="userSpaceOnUse" x="0" y="0" width="24" height="24">
<rect width="24" height="24" fill="#D9D9D9"/>
</mask>
<g mask="url(#mask0_1012_7835)">
<path d="M12 18.275L7.85002 20.775C7.66668 20.8916 7.47501 20.9416 7.27501 20.9249C7.07501 20.9083 6.90002 20.8416 6.75002 20.725C6.60001 20.6083 6.48335 20.4625 6.40002 20.2874C6.31668 20.1124 6.30002 19.9166 6.35002 19.7L7.45002 14.975L3.77502 11.8C3.60835 11.65 3.50418 11.4791 3.46252 11.2875C3.42085 11.0958 3.43335 10.9083 3.50002 10.725C3.56668 10.5416 3.66668 10.3916 3.80002 10.275C3.93335 10.1583 4.11668 10.0833 4.35002 10.05L9.20002 9.62495L11.075 5.17495C11.1583 4.97495 11.2875 4.82495 11.4625 4.72495C11.6375 4.62495 11.8167 4.57495 12 4.57495C12.1833 4.57495 12.3625 4.62495 12.5375 4.72495C12.7125 4.82495 12.8417 4.97495 12.925 5.17495L14.8 9.62495L19.65 10.05C19.8833 10.0833 20.0667 10.1583 20.2 10.275C20.3333 10.3916 20.4333 10.5416 20.5 10.725C20.5667 10.9083 20.5792 11.0958 20.5375 11.2875C20.4958 11.4791 20.3917 11.65 20.225 11.8L16.55 14.975L17.65 19.7C17.7 19.9166 17.6833 20.1124 17.6 20.2874C17.5167 20.4625 17.4 20.6083 17.25 20.725C17.1 20.8416 16.925 20.9083 16.725 20.9249C16.525 20.9416 16.3333 20.8916 16.15 20.775L12 18.275Z" fill="#F2C504"/>
</g>
<mask id="mask1_1012_7835" style="mask-type:alpha" maskUnits="userSpaceOnUse" x="24" y="0" width="24" height="24">
<rect x="24" width="24" height="24" fill="#D9D9D9"/>
</mask>
<g mask="url(#mask1_1012_7835)">
<path d="M36 18.275L31.85 20.775C31.6667 20.8916 31.475 20.9416 31.275 20.9249C31.075 20.9083 30.9 20.8416 30.75 20.725C30.6 20.6083 30.4833 20.4625 30.4 20.2874C30.3167 20.1124 30.3 19.9166 30.35 19.7L31.45 14.975L27.775 11.8C27.6083 11.65 27.5042 11.4791 27.4625 11.2875C27.4208 11.0958 27.4333 10.9083 27.5 10.725C27.5667 10.5416 27.6667 10.3916 27.8 10.275C27.9333 10.1583 28.1167 10.0833 28.35 10.05L33.2 9.62495L35.075 5.17495C35.1583 4.97495 35.2875 4.82495 35.4625 4.72495C35.6375 4.62495 35.8167 4.57495 36 4.57495C36.1833 4.57495 36.3625 4.62495 36.5375 4.72495C36.7125 4.82495 36.8417 4.97495 36.925 5.17495L38.8 9.62495L43.65 10.05C43.8833 10.0833 44.0667 10.1583 44.2 10.275C44.3333 10.3916 44.4333 10.5416 44.5 10.725C44.5667 10.9083 44.5792 11.0958 44.5375 11.2875C44.4958 11.4791 44.3917 11.65 44.225 11.8L40.55 14.975L41.65 19.7C41.7 19.9166 41.6833 20.1124 41.6 20.2874C41.5167 20.4625 41.4 20.6083 41.25 20.725C41.1 20.8416 40.925 20.9083 40.725 20.9249C40.525 20.9416 40.3333 20.8916 40.15 20.775L36 18.275Z" fill="#F2C504"/>
</g>
<mask id="mask2_1012_7835" style="mask-type:alpha" maskUnits="userSpaceOnUse" x="48" y="0" width="24" height="24">
<rect x="48" width="24" height="24" fill="#D9D9D9"/>
</mask>
<g mask="url(#mask2_1012_7835)">
<path d="M60 18.275L55.85 20.775C55.6667 20.8916 55.475 20.9416 55.275 20.9249C55.075 20.9083 54.9 20.8416 54.75 20.725C54.6 20.6083 54.4833 20.4625 54.4 20.2874C54.3167 20.1124 54.3 19.9166 54.35 19.7L55.45 14.975L51.775 11.8C51.6083 11.65 51.5042 11.4791 51.4625 11.2875C51.4208 11.0958 51.4333 10.9083 51.5 10.725C51.5667 10.5416 51.6667 10.3916 51.8 10.275C51.9333 10.1583 52.1167 10.0833 52.35 10.05L57.2 9.62495L59.075 5.17495C59.1583 4.97495 59.2875 4.82495 59.4625 4.72495C59.6375 4.62495 59.8167 4.57495 60 4.57495C60.1833 4.57495 60.3625 4.62495 60.5375 4.72495C60.7125 4.82495 60.8417 4.97495 60.925 5.17495L62.8 9.62495L67.65 10.05C67.8833 10.0833 68.0667 10.1583 68.2 10.275C68.3333 10.3916 68.4333 10.5416 68.5 10.725C68.5667 10.9083 68.5792 11.0958 68.5375 11.2875C68.4958 11.4791 68.3917 11.65 68.225 11.8L64.55 14.975L65.65 19.7C65.7 19.9166 65.6833 20.1124 65.6 20.2874C65.5167 20.4625 65.4 20.6083 65.25 20.725C65.1 20.8416 64.925 20.9083 64.725 20.9249C64.525 20.9416 64.3333 20.8916 64.15 20.775L60 18.275Z" fill="#F2C504"/>
</g>
<mask id="mask3_1012_7835" style="mask-type:alpha" maskUnits="userSpaceOnUse" x="72" y="0" width="24" height="24">
<rect x="72" width="24" height="24" fill="#D9D9D9"/>
</mask>
<g mask="url(#mask3_1012_7835)">
<path d="M84 18.275L79.85 20.775C79.6667 20.8916 79.475 20.9416 79.275 20.9249C79.075 20.9083 78.9 20.8416 78.75 20.725C78.6 20.6083 78.4833 20.4625 78.4 20.2874C78.3167 20.1124 78.3 19.9166 78.35 19.7L79.45 14.975L75.775 11.8C75.6083 11.65 75.5042 11.4791 75.4625 11.2875C75.4208 11.0958 75.4333 10.9083 75.5 10.725C75.5667 10.5416 75.6667 10.3916 75.8 10.275C75.9333 10.1583 76.1167 10.0833 76.35 10.05L81.2 9.62495L83.075 5.17495C83.1583 4.97495 83.2875 4.82495 83.4625 4.72495C83.6375 4.62495 83.8167 4.57495 84 4.57495C84.1833 4.57495 84.3625 4.62495 84.5375 4.72495C84.7125 4.82495 84.8417 4.97495 84.925 5.17495L86.8 9.62495L91.65 10.05C91.8833 10.0833 92.0667 10.1583 92.2 10.275C92.3333 10.3916 92.4333 10.5416 92.5 10.725C92.5667 10.9083 92.5792 11.0958 92.5375 11.2875C92.4958 11.4791 92.3917 11.65 92.225 11.8L88.55 14.975L89.65 19.7C89.7 19.9166 89.6833 20.1124 89.6 20.2874C89.5167 20.4625 89.4 20.6083 89.25 20.725C89.1 20.8416 88.925 20.9083 88.725 20.9249C88.525 20.9416 88.3333 20.8916 88.15 20.775L84 18.275Z" fill="#F2C504"/>
</g>
<mask id="mask4_1012_7835" style="mask-type:alpha" maskUnits="userSpaceOnUse" x="96" y="0" width="24" height="24">
<rect x="96" width="24" height="24" fill="#D9D9D9"/>
</mask>
<g mask="url(#mask4_1012_7835)">
<path d="M108 18.275L103.85 20.775C103.667 20.8916 103.475 20.9416 103.275 20.9249C103.075 20.9083 102.9 20.8416 102.75 20.725C102.6 20.6083 102.483 20.4625 102.4 20.2874C102.317 20.1124 102.3 19.9166 102.35 19.7L103.45 14.975L99.775 11.8C99.6083 11.65 99.5042 11.4791 99.4625 11.2875C99.4208 11.0958 99.4333 10.9083 99.5 10.725C99.5667 10.5416 99.6667 10.3916 99.8 10.275C99.9333 10.1583 100.117 10.0833 100.35 10.05L105.2 9.62495L107.075 5.17495C107.158 4.97495 107.288 4.82495 107.463 4.72495C107.638 4.62495 107.817 4.57495 108 4.57495C108.183 4.57495 108.363 4.62495 108.538 4.72495C108.713 4.82495 108.842 4.97495 108.925 5.17495L110.8 9.62495L115.65 10.05C115.883 10.0833 116.067 10.1583 116.2 10.275C116.333 10.3916 116.433 10.5416 116.5 10.725C116.567 10.9083 116.579 11.0958 116.538 11.2875C116.496 11.4791 116.392 11.65 116.225 11.8L112.55 14.975L113.65 19.7C113.7 19.9166 113.683 20.1124 113.6 20.2874C113.517 20.4625 113.4 20.6083 113.25 20.725C113.1 20.8416 112.925 20.9083 112.725 20.9249C112.525 20.9416 112.333 20.8916 112.15 20.775L108 18.275Z" fill="#F2C504"/>
</g>
</svg>
