<svg width="148" height="24" viewBox="0 0 148 24" fill="none" xmlns="http://www.w3.org/2000/svg">
<g clip-path="url(#clip0_792_7702)">
<path d="M12.9186 2.26364L15.5259 7.43598C15.6757 7.73087 15.9635 7.93683 16.2959 7.98364L22.1235 8.81215C22.9637 8.93151 23.2984 9.94258 22.6899 10.523L18.4725 14.5509C18.2314 14.7802 18.1214 15.1126 18.1776 15.4379L19.1723 21.1228C19.315 21.9419 18.4374 22.5668 17.6861 22.1807L12.474 19.4962C12.1767 19.3417 11.8186 19.3417 11.5214 19.4962L6.30928 22.1807C5.558 22.5668 4.68034 21.9419 4.82311 21.1228L5.81779 15.4379C5.87396 15.1126 5.76396 14.7802 5.5229 14.5509L1.31247 10.5253C0.703963 9.94492 1.04098 8.93385 1.87886 8.81449L7.70651 7.98598C8.03886 7.93917 8.32907 7.73321 8.47651 7.43832L11.0837 2.26364C11.4582 1.51938 12.5442 1.51938 12.9186 2.26364Z" fill="#F2C504"/>
<path d="M9.60806 8.02132C9.57295 8.02132 9.53785 8.01429 9.50274 7.99557C9.38806 7.93706 9.34125 7.79663 9.39976 7.68195L11.1691 4.17132C11.2276 4.05664 11.3681 4.00983 11.4827 4.06834C11.5974 4.12685 11.6442 4.26728 11.5857 4.38196L9.81636 7.89259C9.77423 7.97451 9.69231 8.02132 9.60806 8.02132Z" fill="#FFDA40"/>
<path d="M8.49159 9.1915C8.40265 9.1915 8.3184 9.14235 8.27861 9.05576C8.22478 8.93874 8.27393 8.79831 8.39095 8.74448C8.515 8.68597 8.63202 8.61576 8.73968 8.53618C8.84265 8.45895 8.9901 8.48001 9.06734 8.58299C9.14457 8.68597 9.12351 8.83342 9.02053 8.91065C8.88712 9.01129 8.74202 9.09788 8.58755 9.17044C8.55478 9.18448 8.52202 9.1915 8.48925 9.1915H8.49159Z" fill="#FFDA40"/>
<path d="M18.4736 14.5487C18.2325 14.7804 18.1225 15.1128 18.1787 15.4381L19.1734 21.123C19.3185 21.9421 18.4385 22.567 17.6895 22.1808L12.4774 19.4964C12.1778 19.3419 11.8221 19.3419 11.5225 19.4964L9.5542 20.5098C11.8338 18.7404 15.5504 15.0074 17.9563 8.22021L22.1223 8.81234C22.9625 8.9317 23.2972 9.94277 22.6887 10.5232L18.4736 14.5487Z" fill="#EAAE06"/>
</g>
<g clip-path="url(#clip1_792_7702)">
<path d="M43.9186 2.26364L46.5259 7.43598C46.6757 7.73087 46.9635 7.93683 47.2959 7.98364L53.1235 8.81215C53.9637 8.93151 54.2984 9.94258 53.6899 10.523L49.4725 14.5509C49.2314 14.7802 49.1214 15.1126 49.1776 15.4379L50.1723 21.1228C50.315 21.9419 49.4374 22.5668 48.6861 22.1807L43.474 19.4962C43.1767 19.3417 42.8186 19.3417 42.5214 19.4962L37.3093 22.1807C36.558 22.5668 35.6803 21.9419 35.8231 21.1228L36.8178 15.4379C36.874 15.1126 36.764 14.7802 36.5229 14.5509L32.3125 10.5253C31.704 9.94492 32.041 8.93385 32.8789 8.81449L38.7065 7.98598C39.0389 7.93917 39.3291 7.73321 39.4765 7.43832L42.0837 2.26364C42.4582 1.51938 43.5442 1.51938 43.9186 2.26364Z" fill="#F2C504"/>
<path d="M40.6081 8.02132C40.573 8.02132 40.5378 8.01429 40.5027 7.99557C40.3881 7.93706 40.3412 7.79663 40.3998 7.68195L42.1691 4.17132C42.2276 4.05664 42.3681 4.00983 42.4827 4.06834C42.5974 4.12685 42.6442 4.26728 42.5857 4.38196L40.8164 7.89259C40.7742 7.97451 40.6923 8.02132 40.6081 8.02132Z" fill="#FFDA40"/>
<path d="M39.4916 9.1915C39.4027 9.1915 39.3184 9.14235 39.2786 9.05576C39.2248 8.93874 39.2739 8.79831 39.391 8.74448C39.515 8.68597 39.632 8.61576 39.7397 8.53618C39.8427 8.45895 39.9901 8.48001 40.0673 8.58299C40.1446 8.68597 40.1235 8.83342 40.0205 8.91065C39.8871 9.01129 39.742 9.09788 39.5875 9.17044C39.5548 9.18448 39.522 9.1915 39.4893 9.1915H39.4916Z" fill="#FFDA40"/>
<path d="M49.4736 14.5487C49.2325 14.7804 49.1225 15.1128 49.1787 15.4381L50.1734 21.123C50.3185 21.9421 49.4385 22.567 48.6895 22.1808L43.4774 19.4964C43.1778 19.3419 42.8221 19.3419 42.5225 19.4964L40.5542 20.5098C42.8338 18.7404 46.5504 15.0074 48.9563 8.22021L53.1223 8.81234C53.9625 8.9317 54.2972 9.94277 53.6887 10.5232L49.4736 14.5487Z" fill="#EAAE06"/>
</g>
<g clip-path="url(#clip2_792_7702)">
<path d="M74.9186 2.26364L77.5259 7.43598C77.6757 7.73087 77.9635 7.93683 78.2959 7.98364L84.1235 8.81215C84.9637 8.93151 85.2984 9.94258 84.6899 10.523L80.4725 14.5509C80.2314 14.7802 80.1214 15.1126 80.1776 15.4379L81.1723 21.1228C81.315 21.9419 80.4374 22.5668 79.6861 22.1807L74.474 19.4962C74.1767 19.3417 73.8186 19.3417 73.5214 19.4962L68.3093 22.1807C67.558 22.5668 66.6803 21.9419 66.8231 21.1228L67.8178 15.4379C67.874 15.1126 67.764 14.7802 67.5229 14.5509L63.3125 10.5253C62.704 9.94492 63.041 8.93385 63.8789 8.81449L69.7065 7.98598C70.0389 7.93917 70.3291 7.73321 70.4765 7.43832L73.0837 2.26364C73.4582 1.51938 74.5442 1.51938 74.9186 2.26364Z" fill="#F2C504"/>
<path d="M71.6081 8.02132C71.573 8.02132 71.5378 8.01429 71.5027 7.99557C71.3881 7.93706 71.3412 7.79663 71.3998 7.68195L73.1691 4.17132C73.2276 4.05664 73.3681 4.00983 73.4827 4.06834C73.5974 4.12685 73.6442 4.26728 73.5857 4.38196L71.8164 7.89259C71.7742 7.97451 71.6923 8.02132 71.6081 8.02132Z" fill="#FFDA40"/>
<path d="M70.4916 9.1915C70.4027 9.1915 70.3184 9.14235 70.2786 9.05576C70.2248 8.93874 70.2739 8.79831 70.391 8.74448C70.515 8.68597 70.632 8.61576 70.7397 8.53618C70.8427 8.45895 70.9901 8.48001 71.0673 8.58299C71.1446 8.68597 71.1235 8.83342 71.0205 8.91065C70.8871 9.01129 70.742 9.09788 70.5875 9.17044C70.5548 9.18448 70.522 9.1915 70.4893 9.1915H70.4916Z" fill="#FFDA40"/>
<path d="M80.4736 14.5487C80.2325 14.7804 80.1225 15.1128 80.1787 15.4381L81.1734 21.123C81.3185 21.9421 80.4385 22.567 79.6895 22.1808L74.4774 19.4964C74.1778 19.3419 73.8221 19.3419 73.5225 19.4964L71.5542 20.5098C73.8338 18.7404 77.5504 15.0074 79.9563 8.22021L84.1223 8.81234C84.9625 8.9317 85.2972 9.94277 84.6887 10.5232L80.4736 14.5487Z" fill="#EAAE06"/>
</g>
<g clip-path="url(#clip3_792_7702)">
<path d="M105.919 2.26364L108.526 7.43598C108.676 7.73087 108.964 7.93683 109.296 7.98364L115.124 8.81215C115.964 8.93151 116.298 9.94258 115.69 10.523L111.472 14.5509C111.231 14.7802 111.121 15.1126 111.178 15.4379L112.172 21.1228C112.315 21.9419 111.437 22.5668 110.686 22.1807L105.474 19.4962C105.177 19.3417 104.819 19.3417 104.521 19.4962L99.3093 22.1807C98.558 22.5668 97.6803 21.9419 97.8231 21.1228L98.8178 15.4379C98.874 15.1126 98.764 14.7802 98.5229 14.5509L94.3125 10.5253C93.704 9.94492 94.041 8.93385 94.8789 8.81449L100.707 7.98598C101.039 7.93917 101.329 7.73321 101.477 7.43832L104.084 2.26364C104.458 1.51938 105.544 1.51938 105.919 2.26364Z" fill="#F2C504"/>
<path d="M102.608 8.02132C102.573 8.02132 102.538 8.01429 102.503 7.99557C102.388 7.93706 102.341 7.79663 102.4 7.68195L104.169 4.17132C104.228 4.05664 104.368 4.00983 104.483 4.06834C104.597 4.12685 104.644 4.26728 104.586 4.38196L102.816 7.89259C102.774 7.97451 102.692 8.02132 102.608 8.02132Z" fill="#FFDA40"/>
<path d="M101.492 9.1915C101.403 9.1915 101.318 9.14235 101.279 9.05576C101.225 8.93874 101.274 8.79831 101.391 8.74448C101.515 8.68597 101.632 8.61576 101.74 8.53618C101.843 8.45895 101.99 8.48001 102.067 8.58299C102.145 8.68597 102.124 8.83342 102.021 8.91065C101.887 9.01129 101.742 9.09788 101.588 9.17044C101.555 9.18448 101.522 9.1915 101.489 9.1915H101.492Z" fill="#FFDA40"/>
<path d="M111.474 14.5487C111.233 14.7804 111.123 15.1128 111.179 15.4381L112.173 21.123C112.318 21.9421 111.438 22.567 110.69 22.1808L105.477 19.4964C105.178 19.3419 104.822 19.3419 104.522 19.4964L102.554 20.5098C104.834 18.7404 108.55 15.0074 110.956 8.22021L115.122 8.81234C115.963 8.9317 116.297 9.94277 115.689 10.5232L111.474 14.5487Z" fill="#EAAE06"/>
</g>
<g clip-path="url(#clip4_792_7702)">
<path d="M136.919 2.26364L139.526 7.43598C139.676 7.73087 139.964 7.93683 140.296 7.98364L146.124 8.81215C146.964 8.93151 147.298 9.94258 146.69 10.523L142.472 14.5509C142.231 14.7802 142.121 15.1126 142.178 15.4379L143.172 21.1228C143.315 21.9419 142.437 22.5668 141.686 22.1807L136.474 19.4962C136.177 19.3417 135.819 19.3417 135.521 19.4962L130.309 22.1807C129.558 22.5668 128.68 21.9419 128.823 21.1228L129.818 15.4379C129.874 15.1126 129.764 14.7802 129.523 14.5509L125.312 10.5253C124.704 9.94492 125.041 8.93385 125.879 8.81449L131.707 7.98598C132.039 7.93917 132.329 7.73321 132.477 7.43832L135.084 2.26364C135.458 1.51938 136.544 1.51938 136.919 2.26364Z" fill="#F2C504"/>
<path d="M133.608 8.02132C133.573 8.02132 133.538 8.01429 133.503 7.99557C133.388 7.93706 133.341 7.79663 133.4 7.68195L135.169 4.17132C135.228 4.05664 135.368 4.00983 135.483 4.06834C135.597 4.12685 135.644 4.26728 135.586 4.38196L133.816 7.89259C133.774 7.97451 133.692 8.02132 133.608 8.02132Z" fill="#FFDA40"/>
<path d="M132.492 9.1915C132.403 9.1915 132.318 9.14235 132.279 9.05576C132.225 8.93874 132.274 8.79831 132.391 8.74448C132.515 8.68597 132.632 8.61576 132.74 8.53618C132.843 8.45895 132.99 8.48001 133.067 8.58299C133.145 8.68597 133.124 8.83342 133.021 8.91065C132.887 9.01129 132.742 9.09788 132.588 9.17044C132.555 9.18448 132.522 9.1915 132.489 9.1915H132.492Z" fill="#FFDA40"/>
<path d="M142.474 14.5487C142.233 14.7804 142.123 15.1128 142.179 15.4381L143.173 21.123C143.318 21.9421 142.438 22.567 141.69 22.1808L136.477 19.4964C136.178 19.3419 135.822 19.3419 135.522 19.4964L133.554 20.5098C135.834 18.7404 139.55 15.0074 141.956 8.22021L146.122 8.81234C146.963 8.9317 147.297 9.94277 146.689 10.5232L142.474 14.5487Z" fill="#EAAE06"/>
</g>
<defs>
<clipPath id="clip0_792_7702">
<rect width="22" height="20.5957" fill="white" transform="translate(1 1.70215)"/>
</clipPath>
<clipPath id="clip1_792_7702">
<rect width="22" height="20.5957" fill="white" transform="translate(32 1.70215)"/>
</clipPath>
<clipPath id="clip2_792_7702">
<rect width="22" height="20.5957" fill="white" transform="translate(63 1.70215)"/>
</clipPath>
<clipPath id="clip3_792_7702">
<rect width="22" height="20.5957" fill="white" transform="translate(94 1.70215)"/>
</clipPath>
<clipPath id="clip4_792_7702">
<rect width="22" height="20.5957" fill="white" transform="translate(125 1.70215)"/>
</clipPath>
</defs>
</svg>
