<svg width="184" height="40" viewBox="0 0 184 40" fill="none" xmlns="http://www.w3.org/2000/svg">
<mask id="mask0_790_7690" style="mask-type:luminance" maskUnits="userSpaceOnUse" x="0" y="0" width="183" height="40">
<path d="M182.727 0H0.90918V40H182.727V0Z" fill="white"/>
</mask>
<g mask="url(#mask0_790_7690)">
<path d="M72.6678 23.2689H72.6143L69.26 10H65.2183L61.7942 23.1082H61.7389L58.6409 10.008H54.3325L59.5293 29.2522H63.9013L67.1714 16.154H67.2269L70.5545 29.2522H74.8445L80.1151 10.008H75.8805L72.6678 23.2689ZM93.2844 16.5179C92.8711 16.0019 92.3262 15.6017 91.7047 15.3579C90.884 15.0546 90.0105 14.9132 89.134 14.9417C88.3484 14.9535 87.576 15.1427 86.8773 15.4946C86.0798 15.8861 85.4187 16.5003 84.9774 17.2597H84.8953V10.008H80.9973V29.2522H84.8953V21.9482C84.8953 20.5287 85.1333 19.5087 85.6093 18.8882C86.0853 18.2676 86.8553 17.9581 87.9194 17.9594C88.8529 17.9594 89.5053 18.2429 89.8705 18.8098C90.2356 19.3767 90.4203 20.2333 90.4203 21.3833V29.2522H94.3184V20.6815C94.3244 19.8896 94.246 19.0993 94.0845 18.3233C93.9576 17.6708 93.6844 17.0541 93.2844 16.5179ZM109.369 26.15V18.9124C109.369 18.0666 109.177 17.3877 108.793 16.8757C108.407 16.3602 107.897 15.9459 107.309 15.6695C106.675 15.3748 105.997 15.18 105.301 15.0925C104.581 14.9945 103.855 14.9449 103.128 14.9437C102.338 14.9428 101.55 15.0189 100.775 15.1709C100.034 15.3087 99.3224 15.5684 98.6698 15.9389C98.0514 16.2921 97.5249 16.7806 97.1311 17.3663C96.7018 18.0386 96.4638 18.8111 96.4418 19.604H100.34C100.414 18.85 100.672 18.3093 101.111 17.9956C101.55 17.6819 102.166 17.505 102.937 17.505C103.263 17.5035 103.589 17.5257 103.912 17.5714C104.193 17.608 104.465 17.6996 104.71 17.8408C104.942 17.9779 105.132 18.1738 105.26 18.4076C105.411 18.7135 105.481 19.0515 105.465 19.3909C105.485 19.5584 105.463 19.7282 105.401 19.8856C105.338 20.0429 105.238 20.1829 105.108 20.2935C104.798 20.5244 104.439 20.6845 104.057 20.762C103.56 20.8804 103.055 20.9618 102.545 21.0053C101.975 21.0602 101.398 21.1318 100.814 21.2204C100.225 21.3111 99.6425 21.4333 99.0678 21.5862C98.5176 21.7255 97.9962 21.9575 97.5271 22.2718C97.0673 22.5907 96.6898 23.0107 96.4254 23.4982C96.1207 24.1051 95.9747 24.7765 96.0007 25.4524C95.9838 26.0915 96.1105 26.7264 96.372 27.312C96.6045 27.8171 96.9562 28.2609 97.3978 28.6067C97.8544 28.9562 98.3774 29.2125 98.9365 29.3607C99.5545 29.5275 100.193 29.6093 100.834 29.604C101.709 29.604 102.58 29.4773 103.417 29.228C104.254 28.9787 105.012 28.5233 105.619 27.9051C105.636 28.136 105.668 28.3656 105.715 28.5927C105.76 28.816 105.82 29.0364 105.894 29.2522H109.853C109.634 28.8522 109.503 28.4118 109.467 27.9595C109.396 27.3589 109.363 26.7545 109.369 26.15ZM105.471 23.858C105.467 24.1467 105.444 24.4347 105.403 24.7205C105.352 25.0962 105.226 25.4582 105.032 25.786C104.805 26.1609 104.482 26.4718 104.096 26.6887C103.677 26.9407 103.081 27.0667 102.309 27.0667C102.005 27.0671 101.702 27.0395 101.403 26.9844C101.13 26.9387 100.869 26.8425 100.633 26.7009C100.412 26.566 100.231 26.3758 100.11 26.15C99.9742 25.8825 99.9078 25.5862 99.9173 25.2875C99.906 24.9796 99.9724 24.6738 100.11 24.3969C100.234 24.1693 100.407 23.9715 100.619 23.8178C100.844 23.6575 101.095 23.5345 101.362 23.454C101.645 23.3642 101.934 23.2924 102.227 23.2389C102.539 23.1865 102.843 23.1384 103.161 23.1042C103.479 23.07 103.776 23.0216 104.055 22.9695C104.325 22.9191 104.592 22.852 104.853 22.7684C105.08 22.6996 105.29 22.5853 105.469 22.4327L105.471 23.858ZM116.662 11.1379H112.764V15.3177H110.389V17.879H112.752V26.0996C112.726 26.6855 112.849 27.2684 113.109 27.7965C113.331 28.2151 113.67 28.5635 114.086 28.8018C114.53 29.0458 115.017 29.2055 115.522 29.2722C116.09 29.3546 116.664 29.3949 117.239 29.3929C117.627 29.3929 118.019 29.3929 118.423 29.3667C118.791 29.3531 119.159 29.3167 119.522 29.2582V26.2867C119.331 26.3262 119.138 26.3538 118.944 26.3691C118.739 26.3873 118.533 26.3973 118.312 26.3973C117.653 26.3973 117.212 26.2867 116.991 26.0716C116.769 25.8564 116.662 25.4262 116.662 24.7789V17.879H119.522V15.3177H116.656L116.662 11.1379ZM132.802 23.1444C132.546 22.7073 132.196 22.33 131.777 22.0385C131.336 21.7329 130.852 21.4918 130.341 21.3229C129.801 21.146 129.245 20.9931 128.677 20.8665C128.108 20.7398 127.587 20.6233 127.056 20.5167C126.577 20.4222 126.103 20.3005 125.638 20.1527C125.273 20.0429 124.933 19.864 124.637 19.626C124.512 19.5249 124.412 19.3973 124.346 19.2527C124.279 19.108 124.247 18.9504 124.251 18.7916C124.237 18.5462 124.312 18.3036 124.465 18.1082C124.609 17.9348 124.793 17.7971 125.002 17.7061C125.225 17.6142 125.461 17.5553 125.702 17.5312C125.941 17.5103 126.18 17.5016 126.42 17.505C127.049 17.4893 127.673 17.6232 128.238 17.8951C128.749 18.1544 129.034 18.6529 129.087 19.3909H132.8C132.76 18.632 132.528 17.8948 132.125 17.2457C131.765 16.6933 131.281 16.2286 130.71 15.8866C130.113 15.5337 129.456 15.2873 128.771 15.1588C128.034 15.0136 127.284 14.9415 126.533 14.9437C125.776 14.9428 125.02 15.0101 124.276 15.1447C123.58 15.2663 122.91 15.5036 122.296 15.8464C121.714 16.1735 121.226 16.6414 120.881 17.2055C120.498 17.8804 120.313 18.6456 120.345 19.4169C120.328 19.9584 120.461 20.4942 120.731 20.9671C120.987 21.3889 121.338 21.7485 121.757 22.0185C122.201 22.3073 122.684 22.5338 123.193 22.692C123.732 22.8629 124.288 23.0116 124.855 23.1364C125.961 23.3464 127.051 23.6353 128.115 24.0007C128.894 24.2864 129.284 24.7173 129.284 25.2935C129.296 25.5951 129.209 25.8925 129.036 26.142C128.874 26.3638 128.663 26.5478 128.42 26.6807C128.163 26.8191 127.887 26.9187 127.6 26.9764C127.315 27.0387 127.025 27.0711 126.734 27.0727C126.359 27.0735 125.985 27.0282 125.622 26.938C125.282 26.8555 124.961 26.7138 124.672 26.5198C124.395 26.3289 124.165 26.0804 123.997 25.7922C123.816 25.4655 123.727 25.098 123.736 24.7265H120.011C120.015 25.546 120.237 26.35 120.657 27.0587C121.037 27.6646 121.554 28.1765 122.169 28.5545C122.816 28.9431 123.529 29.2153 124.274 29.3587C125.069 29.522 125.879 29.6035 126.691 29.602C127.49 29.6027 128.287 29.526 129.071 29.3727C129.808 29.234 130.512 28.9611 131.147 28.5685C131.801 28.1711 132.335 27.6089 132.693 26.9405C133.05 26.2724 133.219 25.5224 133.18 24.7687C133.198 24.2051 133.066 23.6465 132.796 23.1484L132.802 23.1444ZM140.555 10.004L133.133 29.248H137.476L139.017 24.9638H146.357L147.841 29.248H152.325L144.979 10.008L140.555 10.004ZM140.145 21.8095L142.703 14.7487H142.757L145.233 21.8095H140.145ZM165.811 17.2055C165.275 16.5174 164.589 15.9555 163.802 15.5609C162.906 15.1276 161.916 14.915 160.918 14.9417C160.082 14.9313 159.254 15.1058 158.497 15.4523C157.743 15.8173 157.115 16.3913 156.691 17.1029H156.636V15.3177H152.923V34.1315H156.821V27.5291H156.874C157.332 28.1962 157.964 28.7307 158.704 29.0773C159.464 29.4316 160.296 29.6118 161.137 29.604C162.085 29.6216 163.023 29.4147 163.872 29.0007C164.635 28.618 165.302 28.0742 165.825 27.4086C166.358 26.7238 166.755 25.9471 166.995 25.1185C167.252 24.2429 167.381 23.3358 167.378 22.4245C167.381 21.4638 167.252 20.5069 166.995 19.5798C166.758 18.7216 166.356 17.9158 165.811 17.2055ZM163.31 23.9707C163.213 24.47 163.021 24.9475 162.746 25.378C162.28 26.0193 161.592 26.4727 160.81 26.654C160.029 26.8353 159.206 26.7318 158.497 26.3631C158.069 26.1224 157.706 25.7845 157.438 25.378C157.161 24.9467 156.966 24.47 156.862 23.9707C156.742 23.4311 156.682 22.8804 156.683 22.3282C156.681 21.7667 156.736 21.2064 156.845 20.6555C156.944 20.1493 157.136 19.6649 157.411 19.226C157.675 18.8156 158.032 18.4715 158.456 18.2207C158.943 17.9412 159.5 17.8019 160.064 17.8187C160.619 17.804 161.167 17.9434 161.644 18.2207C162.073 18.4773 162.435 18.8276 162.703 19.244C162.986 19.6862 163.186 20.1744 163.293 20.6856C163.414 21.2265 163.473 21.7785 163.472 22.3322C163.475 22.8818 163.424 23.4307 163.318 23.9707H163.31ZM182.557 19.5898C182.322 18.7278 181.92 17.9183 181.372 17.2055C180.837 16.5175 180.151 15.9556 179.366 15.5609C178.469 15.1279 177.478 14.9153 176.479 14.9417C175.644 14.9319 174.817 15.1065 174.06 15.4523C173.306 15.8178 172.678 16.3916 172.253 17.1029H172.199V15.3177H168.478V34.1315H172.376V27.5291H172.431C172.889 28.1956 173.52 28.7302 174.259 29.0773C175.019 29.4316 175.851 29.6118 176.693 29.604C177.641 29.6216 178.58 29.4147 179.429 29.0007C180.192 28.6178 180.858 28.074 181.38 27.4086C181.913 26.7238 182.309 25.9471 182.549 25.1185C182.809 24.2431 182.938 23.336 182.935 22.4245C182.942 21.4676 182.818 20.514 182.564 19.5898H182.557ZM178.863 23.9707C178.767 24.4704 178.576 24.9478 178.299 25.378C178.011 25.8102 177.617 26.1653 177.154 26.4111C176.691 26.6567 176.172 26.7855 175.645 26.7855C175.118 26.7855 174.6 26.6567 174.136 26.4111C173.673 26.1653 173.279 25.8102 172.991 25.378C172.715 24.9464 172.52 24.4698 172.415 23.9707C172.296 23.4309 172.236 22.8804 172.236 22.3282C172.235 21.7665 172.29 21.2064 172.401 20.6555C172.507 20.1476 172.707 19.6631 172.991 19.226C173.256 18.8165 173.613 18.4725 174.036 18.2207C174.523 17.9412 175.08 17.8019 175.644 17.8187C176.199 17.8038 176.747 17.9432 177.224 18.2207C177.653 18.4773 178.016 18.8275 178.285 19.244C178.568 19.6862 178.768 20.1744 178.875 20.6856C178.996 21.2265 179.055 21.7785 179.054 22.3322C179.05 22.8825 178.992 23.4313 178.879 23.9707H178.863Z" fill="#25D366"/>
<path d="M47.1466 19.0993C46.9562 13.9909 44.7593 9.152 41.0148 5.59305C37.2702 2.03413 32.2675 0.0302991 27.0511 5.46824e-06H26.9526C23.4397 -0.00255078 19.9868 0.891167 16.9334 2.59322C13.8801 4.29527 11.3315 6.747 9.53857 9.70718C7.7456 12.6674 6.77 16.034 6.70777 19.4758C6.64551 22.9176 7.49879 26.316 9.18359 29.3365L7.39459 39.8271C7.39168 39.8485 7.39348 39.8705 7.39986 39.8913C7.40626 39.912 7.41708 39.9313 7.43164 39.9476C7.4462 39.964 7.46415 39.9771 7.4843 39.9862C7.50444 39.9953 7.52631 40 7.54846 40H7.57924L18.1676 37.692C20.9033 38.9791 23.8993 39.6471 26.934 39.6462C27.127 39.6462 27.3199 39.6462 27.5126 39.6462C30.1822 39.5715 32.8102 38.9795 35.245 37.9044C37.6797 36.8291 39.8731 35.292 41.6986 33.3818C43.5239 31.4715 44.9451 29.2258 45.8802 26.7745C46.8153 24.3231 47.2457 21.7145 47.1466 19.0993ZM27.412 36.1982C27.252 36.1982 27.092 36.1982 26.934 36.1982C24.252 36.2015 21.6084 35.5725 19.2262 34.3647L18.6846 34.0873L11.504 35.7498L12.8293 28.6309L12.5216 28.1202C11.0517 25.6645 10.2601 22.876 10.2245 20.0293C10.1889 17.1825 10.9106 14.3758 12.3186 11.8856C13.7266 9.39533 15.7723 7.30745 18.2542 5.82756C20.736 4.34769 23.5684 3.52685 26.4724 3.44593C26.6339 3.44593 26.796 3.44593 26.9588 3.44593C31.3433 3.45865 35.5473 5.15878 38.665 8.17996C41.7824 11.2012 43.5642 15.3016 43.626 19.5978C43.6879 23.894 42.0251 28.0422 38.9957 31.1484C35.9664 34.2545 31.8131 36.0702 27.4306 36.2042L27.412 36.1982Z" fill="#25D366"/>
<path d="M19.902 10.2533C19.6522 10.2581 19.4056 10.3119 19.1773 10.4117C18.9489 10.5115 18.7433 10.6552 18.5727 10.8343C18.0905 11.3188 16.7426 12.4849 16.6646 14.9336C16.5867 17.3823 18.3325 19.8049 18.5767 20.1447C18.8209 20.4845 21.9147 25.774 27.0109 27.9191C30.0062 29.1836 31.3193 29.4009 32.1707 29.4009C32.5214 29.4009 32.7862 29.3647 33.0631 29.3486C33.9965 29.2924 36.1036 28.2347 36.5633 27.0847C37.0227 25.9349 37.0534 24.9296 36.9325 24.7286C36.8114 24.5275 36.4791 24.3827 35.9785 24.1255C35.4778 23.868 33.0222 22.5815 32.5605 22.4004C32.3893 22.3224 32.2051 22.2753 32.0169 22.2616C31.8942 22.268 31.7749 22.3035 31.6694 22.3653C31.564 22.4269 31.4754 22.5127 31.4116 22.6156C31.0013 23.1162 30.0596 24.2038 29.7436 24.5175C29.6745 24.5955 29.5896 24.6582 29.4942 24.7018C29.3987 24.7455 29.2951 24.7689 29.1896 24.7707C28.9956 24.7624 28.8058 24.7124 28.6336 24.624C27.1462 24.0049 25.79 23.1185 24.6351 22.0104C23.5562 20.9684 22.6407 19.7753 21.9187 18.47C21.6398 17.9634 21.9187 17.702 22.1733 17.4648C22.4276 17.2275 22.7005 16.8998 22.9631 16.6164C23.1785 16.3742 23.3582 16.1035 23.4965 15.8122C23.5682 15.677 23.6044 15.5265 23.6018 15.3741C23.5993 15.2218 23.5582 15.0725 23.4822 14.9397C23.3611 14.6863 22.4564 12.1954 22.0316 11.1962C21.6869 10.3417 21.2767 10.3136 20.9176 10.2875C20.6222 10.2673 20.2836 10.2573 19.9451 10.2473H19.902" fill="#25D366"/>
</g>
</svg>
